<?xml version="1.0" encoding="utf-8"?>
<!-- Generator: Adobe Illustrator 25.4.1, SVG Export Plug-In . SVG Version: 6.00 Build 0)  -->
<svg version="1.1" id="Слой_1" xmlns="http://www.w3.org/2000/svg" xmlns:xlink="http://www.w3.org/1999/xlink" x="0px" y="0px"
	 viewBox="0 0 512 512" style="enable-background:new 0 0 512 512;" xml:space="preserve">
<style type="text/css">
	.st0{fill:#0077FF;}
	.st1{fill:#FFFFFF;}
</style>
<rect class="st0" width="512" height="512"/>
<g>
	<path class="st1" d="M351.4,333c-0.5,0.1-1.1,0.1-1.6,0.2c-39.9,4.9-80,5.6-120.2,4.7c-14.7-0.3-29.5-1.3-44.2-2.4
		c-7.5-0.6-14.9-1.3-22.3-2.2c-7-0.8-14-1.9-21-3.1v26v52.5c0,5.1,3.7,9.5,8.8,10.3c11.4,1.7,22.9,2.9,34.5,3.8
		c13.5,1,27,1.9,40.6,2.3c1.5,0,2.7-1.1,2.7-2.6v-38.5c0-15.5,12.5-28,28-28h0c15.5,0,28,12.5,28,28v38.5c0,1.5,1.2,2.6,2.7,2.6
		c20.9-0.6,41.7-2,62.5-4.6c3.9-0.5,7.7-1,11.6-1.5c5.2-0.7,9-5.1,9-10.3v-54.6v-23.9C364.1,331.4,357.7,332.2,351.4,333z"/>
	<path class="st1" d="M215,184.4c-4-0.3-8-0.7-12-1.1c0.8-0.9,1.3-1.6,1.5-1.8c1.5-2.1,17.1-20.1,18.4-21.9
		c8.8-12.3,28.4-37,28.4-37s3.2-31.9,4.7-37.9c1.5,6,4.7,37.9,4.7,37.9s19.6,24.7,28.4,37c1.3,1.8,16.9,19.8,18.4,21.9
		c0.2,0.3,0.7,0.9,1.5,1.8c-4,0.5-8,0.8-12,1.1c-8.5,0.6-17.1,1.2-25.7,1.4c-5.1,0.1-10.2,0.2-15.4,0.2c-5.1,0-10.2-0.1-15.4-0.2
		C232.1,185.6,223.5,185.1,215,184.4z"/>
	<path class="st1" d="M353.9,236.3c-1,0.2-2.1,0.5-3.1,0.7c-13.6,3-27.5,4.6-41.4,5.7c-11.1,0.8-22.2,1.6-33.4,1.8
		c-6.7,0.1-13.3,0.2-20,0.2c-6.7,0-13.3-0.1-20-0.2c-11.1-0.2-22.3-1-33.4-1.8c-13.9-1-27.8-2.7-41.4-5.7c-1-0.2-2.1-0.5-3.1-0.7
		c14.6-16.8,28.8-33.1,37.6-43.3c6.4,1,12.8,1.6,19.3,2.1c8.5,0.6,17.1,1.2,25.6,1.4c5.1,0.1,10.2,0.2,15.4,0.2
		c5.1,0,10.2-0.1,15.4-0.2c8.6-0.2,17.1-0.8,25.7-1.4c6.5-0.5,12.9-1.1,19.3-2.1C325.1,203.2,339.2,219.5,353.9,236.3z"/>
	<path class="st1" d="M409.2,305.3c-0.9,1-2.1,1.9-3.3,2.7c-7.5,4.6-16,6.7-24.5,8.5c-18,3.9-36.3,6.2-54.8,7.5
		c-14.7,1.1-29.4,2.1-44.2,2.4c-8.8,0.2-17.6,0.3-26.5,0.3c-8.8,0-17.6-0.1-26.5-0.3c-14.7-0.3-29.5-1.3-44.2-2.4
		c-18.4-1.4-36.8-3.6-54.8-7.5c-8.6-1.9-17.1-4-24.5-8.5c-1.2-0.7-2.4-1.6-3.3-2.7c-1.8-2-1.8-4.7,0.3-6.4
		c2.8-2.3,25.2-27.6,48.3-54c3.2,1,6.5,1.8,9.8,2.5c13.6,3,27.5,4.6,41.4,5.7c11.1,0.8,22.2,1.6,33.4,1.8c6.7,0.1,13.3,0.2,20,0.2
		c6.7,0,13.3-0.1,20-0.2c11.1-0.2,22.3-1,33.4-1.8c13.9-1,27.8-2.7,41.4-5.7c3.3-0.7,6.6-1.5,9.8-2.5c23.1,26.4,45.6,51.7,48.3,54
		C411,300.7,411,303.3,409.2,305.3z"/>
</g>
</svg>
