<?xml version="1.0" standalone="no"?>
<!DOCTYPE svg PUBLIC "-//W3C//DTD SVG 20010904//EN"
 "http://www.w3.org/TR/2001/REC-SVG-20010904/DTD/svg10.dtd">
<svg version="1.0" xmlns="http://www.w3.org/2000/svg"
 width="512.000000pt" height="512.000000pt" viewBox="0 0 512.000000 512.000000"
 preserveAspectRatio="xMidYMid meet">

<g transform="translate(0.000000,512.000000) scale(0.100000,-0.100000)"
fill="#000000" stroke="none">
<path d="M1188 2783 c-11 -13 -246 -402 -275 -455 -2 -5 16 -8 41 -8 l46 0
106 180 c59 99 109 180 113 180 6 0 101 -153 101 -164 0 -3 -32 -6 -70 -8 -68
-3 -72 -4 -91 -35 l-21 -33 115 0 115 0 34 -57 c33 -57 35 -58 82 -61 39 -3
47 0 43 11 -3 8 -67 116 -142 241 -114 188 -140 226 -159 226 -13 0 -30 -8
-38 -17z"/>
<path d="M1687 2753 c-18 -55 -117 -417 -117 -427 0 -3 16 -6 35 -6 23 0 37 6
43 18 5 9 26 83 48 164 21 82 41 148 44 148 3 0 37 -73 75 -163 59 -136 74
-163 93 -165 13 -2 29 1 36 7 8 7 44 81 82 167 41 95 70 150 75 142 4 -7 19
-58 34 -113 59 -222 51 -205 97 -205 28 0 39 4 36 13 -3 6 -31 109 -63 227
-32 118 -63 221 -68 228 -6 7 -22 12 -35 10 -22 -3 -34 -23 -100 -175 -41 -95
-78 -173 -81 -173 -4 0 -41 78 -82 173 -72 167 -76 172 -106 175 -29 3 -32 0
-46 -45z"/>
<path d="M2330 2755 l0 -45 213 2 212 3 3 43 3 42 -215 0 -216 0 0 -45z"/>
<path d="M2830 2561 l0 -241 40 0 40 0 0 200 0 200 143 0 c156 0 183 -7 205
-54 17 -34 8 -90 -19 -117 -17 -17 -33 -19 -139 -19 l-120 0 0 -35 0 -35 84 0
85 0 63 -70 63 -70 60 1 60 0 -72 67 -73 67 41 41 c47 48 63 100 50 168 -11
57 -32 91 -74 113 -27 15 -64 19 -234 21 l-203 3 0 -240z"/>
<path d="M3440 2743 l0 -57 45 44 c25 24 45 50 45 57 0 9 -15 13 -45 13 l-45
0 0 -57z"/>
<path d="M3725 2685 l120 -115 -128 -125 -129 -125 54 0 53 0 95 95 c52 52 99
95 105 95 6 0 53 -43 105 -95 l95 -95 58 0 59 0 -129 125 -128 124 117 116
116 115 -52 0 -51 0 -89 -89 -89 -90 -95 90 -94 89 -56 0 -56 0 119 -115z"/>
<path d="M3476 2630 l-36 -40 0 -135 0 -135 40 0 40 0 0 175 c0 96 -2 175 -4
175 -2 0 -20 -18 -40 -40z"/>
<path d="M2330 2565 l0 -45 216 0 215 0 -3 43 -3 42 -212 3 -213 2 0 -45z"/>
<path d="M2330 2365 l0 -45 216 0 215 0 -3 43 -3 42 -212 3 -213 2 0 -45z"/>
</g>
</svg>
