<?xml version="1.0" encoding="utf-8"?>
<!-- Generator: Adobe Illustrator 26.5.0, SVG Export Plug-In . SVG Version: 6.00 Build 0)  -->
<svg version="1.1" id="Layer_1" xmlns="http://www.w3.org/2000/svg" xmlns:xlink="http://www.w3.org/1999/xlink" x="0px" y="0px"
	 viewBox="0 0 91 13.6" style="enable-background:new 0 0 91 13.6;" xml:space="preserve">
<style type="text/css">
	.st0{fill:#0077FF;}
</style>
<g>
	<path class="st0" d="M91,13.4c-1.1,0-2.1,0-3.1,0c-0.2,0-0.4-0.2-0.6-0.4c-1.7-1.6-3.3-3.2-4.9-4.8c-0.1-0.1-0.1-0.1-0.2-0.2
		c-0.9,0.9-1.7,1.7-2.6,2.5c-0.9,0.9-1.8,1.8-2.7,2.6c-0.1,0.1-0.3,0.2-0.5,0.2c-0.9,0-1.7,0-2.7-0.1c2.3-2.3,4.6-4.5,7-6.8
		c-2.2-2.1-4.3-4.1-6.5-6.3c0.2,0,0.3-0.1,0.4-0.1c0.8,0,1.6,0,2.5,0c0.2,0,0.5,0.1,0.6,0.3c1.6,1.5,3.1,3,4.7,4.6
		c0.4-0.4,0.8-0.8,1.2-1.2c1.2-1.1,2.3-2.3,3.5-3.4c0.1-0.1,0.2-0.2,0.4-0.2c0.9,0,1.8,0,2.9,0c-2.2,2.2-4.4,4.2-6.6,6.3
		C86.2,8.8,88.5,11.1,91,13.4z"/>
	<g>
		<path d="M50.9,0.2c0,0.8,0,1.5,0,2.3c-3.9,0-7.8,0-11.7,0c0-0.7,0-1.5,0-2.3C43,0.2,46.9,0.2,50.9,0.2z"/>
		<path d="M69.8,3.3c0-1.1,0-2,0-3c0.8,0,1.5,0,2.3,0c0.1,0.4,0,0.8-0.3,1.1C71.1,1.9,70.5,2.6,69.8,3.3z"/>
	</g>
	<path class="st0" d="M37.6,13.4c-0.8,0-1.5,0-2.3,0c-0.8-3-1.7-6.1-2.5-9.2c-0.1,0.1-0.1,0.2-0.2,0.3c-1.1,2.6-2.3,5.3-3.4,7.9
		c-0.1,0.2-0.1,0.3-0.2,0.5c-0.2,0.4-0.6,0.7-1.1,0.7c-0.6,0-0.9-0.3-1.2-0.8c-0.5-1.2-1-2.3-1.5-3.5c-0.7-1.7-1.5-3.4-2.2-5.1
		c-0.2,0.9-0.4,1.6-0.6,2.3c-0.6,2.2-1.2,4.4-1.8,6.6c0,0.1-0.2,0.3-0.3,0.3c-0.7,0-1.3,0-2,0c0.2-0.8,0.4-1.5,0.6-2.3
		c0.9-3.3,1.8-6.7,2.8-10C21.7,0.3,22,0,22.6,0C23.2,0,23.7,0.3,24,1c1.2,2.8,2.5,5.7,3.7,8.5c0.1,0.2,0.2,0.4,0.3,0.6
		c0.4-0.8,0.7-1.5,1-2.3c1-2.3,2-4.7,3.1-7c0.2-0.6,0.6-0.8,1.2-0.8c0.5,0,0.9,0.3,1,0.9c1.1,4.1,2.2,8.1,3.3,12.2
		C37.5,13.2,37.5,13.3,37.6,13.4z"/>
	<path class="st0" d="M56.9,9.7c0-0.7,0-1.4,0-2c0.2,0,0.3,0,0.5,0c1.7,0,3.4,0,5.1,0c1.5,0,2.4-0.9,2.5-2.4c0-0.8,0-1.5-0.6-2.1
		c-0.5-0.6-1.1-0.7-1.8-0.7c-2.3,0-4.7,0-7,0c-0.1,0-0.1,0-0.2,0.1c0,3.6,0,7.2,0,10.9c-0.7,0-1.4,0-2.1,0c-0.1,0-0.2-0.1-0.2-0.2
		c0-0.1,0-0.2,0-0.4c0-4,0-8,0-12.1c0-0.2,0-0.3,0-0.6c0.2,0,0.4,0,0.6,0c3,0,6,0,9,0c2.7,0,4.5,1.7,4.6,4.5
		c0.1,1.2-0.1,2.4-0.9,3.4c-0.5,0.6-1.1,1-1.7,1.5c1.2,1.2,2.6,2.5,3.9,3.9c-1.1,0-2.2,0-3.2,0c-0.1,0-0.3-0.2-0.4-0.3
		c-1-1-1.9-2.1-2.9-3.2c-0.2-0.2-0.4-0.3-0.6-0.3c-1.4,0-2.7,0-4,0C57.2,9.7,57.1,9.7,56.9,9.7z"/>
	<path class="st0" d="M11.6,8.2c-1-1.7-2-3.3-3-4.9C8.1,4.2,7.5,5.1,7,6c-1.4,2.4-2.8,4.7-4.2,7.1c-0.1,0.2-0.3,0.3-0.6,0.3
		c-0.7,0-1.5,0-2.3,0c0.4-0.7,0.9-1.4,1.3-2.1c2.1-3.5,4.2-7,6.3-10.5c0.2-0.4,0.5-0.7,1-0.8c0.6-0.1,1,0.2,1.3,0.7
		c1.8,3,3.6,5.9,5.3,8.9c0.7,1.1,1.4,2.3,2,3.4c0.1,0.1,0.1,0.2,0.2,0.4c-0.9,0-1.8,0-2.6,0c-0.1,0-0.2-0.2-0.3-0.3
		c-0.6-0.9-1.1-1.8-1.6-2.7c-0.2-0.3-0.3-0.4-0.7-0.4c-1.8,0-3.5,0-5.2,0c-0.2,0-0.3,0-0.6,0c0.4-0.6,0.7-1.2,1-1.7
		c0.1-0.1,0.2-0.1,0.4-0.1c1.1,0,2.2,0,3.2,0C11.2,8.2,11.3,8.2,11.6,8.2z"/>
	<rect x="39.1" y="5.5" width="11.7" height="2.3"/>
	<rect x="39.1" y="11.1" width="11.8" height="2.3"/>
	<path class="st0" d="M72,13.4c-0.8,0-1.5,0-2.3,0c0-0.2,0-0.3,0-0.4c0-2.3,0-4.6,0-6.8c0-0.2,0.1-0.5,0.2-0.6c0.6-0.7,1.3-1.3,2-2
		C72,6.8,72,10.1,72,13.4z"/>
</g>
</svg>
