<?xml version="1.0" encoding="utf-8"?>
<!-- Generator: Adobe Illustrator 26.1.0, SVG Export Plug-In . SVG Version: 6.00 Build 0)  -->
<svg version="1.1" id="Layer_1" xmlns="http://www.w3.org/2000/svg" xmlns:xlink="http://www.w3.org/1999/xlink" x="0px" y="0px"
	 viewBox="0 0 512 512" style="enable-background:new 0 0 512 512;" xml:space="preserve">
<style type="text/css">
	.st0{fill:#0077FF;}
</style>
<path class="st0" d="M421.5,280.1c-4,0-7.6,0.1-11.1-0.1c-0.8,0-1.6-0.7-2.2-1.3c-6-5.8-12-11.7-18-17.6c-0.2-0.2-0.5-0.4-0.8-0.7
	c-3.2,3.1-6.3,6.2-9.4,9.2c-3.2,3.2-6.5,6.4-9.7,9.5c-0.4,0.4-1.1,0.8-1.7,0.8c-3.2,0.1-6.3,0-9.7-0.3c8.5-8.2,16.9-16.4,25.5-24.7
	c-7.9-7.6-15.7-15.1-23.7-22.8c0.6-0.1,1-0.2,1.3-0.2c3,0,5.9-0.1,8.9,0c0.8,0,1.7,0.4,2.3,1c5.7,5.5,11.4,11,17.2,16.6
	c1.5-1.5,3-2.9,4.5-4.4c4.2-4.1,8.4-8.3,12.6-12.4c0.4-0.4,0.9-0.8,1.4-0.8c3.3-0.1,6.6,0,10.4,0c-8.1,7.8-15.9,15.3-23.9,23
	C404,263.3,412.6,271.5,421.5,280.1z"/>
<g>
	<path d="M275.6,232.1c0,2.8,0,5.4,0,8.2c-14.3,0-28.5,0-42.7,0c0-2.7,0-5.4,0-8.2C247,232.1,261.2,232.1,275.6,232.1z"/>
	<path d="M344.3,243.1c0-3.9,0-7.4,0-11c2.8,0,5.5,0,8.3,0c0.4,1.6,0,2.8-1.2,3.9C349,238.2,346.8,240.6,344.3,243.1z"/>
</g>
<path class="st0" d="M227.1,280c-2.8,0-5.4,0-8.2,0c-3-11-6-22.1-9.1-33.4c-0.3,0.5-0.5,0.8-0.7,1.1c-4.2,9.5-8.3,19.1-12.5,28.6
	c-0.3,0.6-0.5,1.2-0.8,1.7c-0.9,1.6-2.1,2.7-4,2.6c-2,0-3.4-1.1-4.2-2.9c-1.9-4.2-3.7-8.5-5.5-12.7c-2.7-6.1-5.3-12.2-8.1-18.7
	c-0.8,3.1-1.6,5.8-2.3,8.5c-2.2,8.1-4.4,16.1-6.6,24.2c-0.1,0.4-0.8,1-1.2,1c-2.4,0.1-4.7,0-7.3,0c0.8-2.9,1.5-5.6,2.2-8.3
	c3.3-12.2,6.7-24.3,10-36.5c0.7-2.7,1.8-3.8,3.9-3.9c2.4-0.1,3.9,0.9,5,3.4c4.5,10.3,9,20.6,13.4,31c0.3,0.7,0.6,1.3,1.1,2.3
	c1.3-2.9,2.5-5.5,3.6-8.2c3.7-8.5,7.4-17.1,11.1-25.6c0.9-2.1,2.3-2.9,4.5-2.8c1.7,0.1,3.1,1.2,3.6,3.2c4,14.8,8.1,29.6,12.1,44.4
	C227,279.3,227,279.6,227.1,280z"/>
<path class="st0" d="M297.4,266.6c0-2.6,0-4.9,0-7.4c0.6,0,1.2,0,1.7,0c6.1,0,12.2,0,18.4,0c5.5,0,8.7-3.1,9-8.6
	c0.1-2.8-0.1-5.5-2.1-7.7c-1.8-2-4.1-2.5-6.6-2.6c-8.5-0.1-17.1,0-25.6,0c-0.3,0-0.5,0.1-0.9,0.2c0,13.1,0,26.2,0,39.5
	c-2.6,0-5.1,0-7.5,0c-0.3,0-0.7-0.5-0.8-0.9c-0.1-0.4,0-0.8,0-1.3c0-14.6,0-29.2,0-43.8c0-0.6,0-1.2,0-2.1c0.8,0,1.5,0,2.2,0
	c11,0,21.9,0,32.9,0c9.9,0,16.5,6.3,16.8,16.2c0.2,4.5-0.3,8.8-3.3,12.3c-1.7,2-4,3.5-6.3,5.4c4.5,4.4,9.3,9.1,14.3,14
	c-4.1,0-7.9,0-11.6,0c-0.5,0-1-0.6-1.4-1c-3.5-3.8-7-7.6-10.4-11.5c-0.7-0.8-1.3-1-2.3-1c-4.9,0-9.7,0-14.6,0
	C298.7,266.6,298.1,266.6,297.4,266.6z"/>
<path class="st0" d="M132.6,261.1c-3.6-6.1-7.1-11.9-10.7-17.9c-2,3.4-4,6.7-5.9,9.9c-5.1,8.6-10.2,17.2-15.2,25.8
	c-0.5,0.8-1,1.2-2,1.1c-2.7-0.1-5.3,0-8.3,0c1.6-2.7,3.1-5.2,4.6-7.7c7.6-12.7,15.3-25.5,22.9-38.2c0.8-1.4,1.8-2.6,3.6-2.8
	c2.3-0.3,3.7,0.8,4.8,2.6c6.5,10.7,12.9,21.5,19.4,32.2c2.5,4.1,5,8.2,7.4,12.3c0.3,0.4,0.5,0.9,0.8,1.5c-3.3,0-6.4,0-9.5,0
	c-0.4,0-0.9-0.6-1.2-1c-2-3.2-3.9-6.5-5.8-9.8c-0.6-1-1.2-1.4-2.4-1.4c-6.4,0.1-12.8,0-19.1,0c-0.6,0-1.1,0-2,0
	c1.3-2.3,2.4-4.3,3.7-6.3c0.2-0.3,0.9-0.4,1.4-0.4c3.9,0,7.8,0,11.7,0C131.2,261.1,131.7,261.1,132.6,261.1z"/>
<rect x="232.8" y="251.3" width="42.6" height="8.4"/>
<rect x="232.8" y="271.6" width="42.8" height="8.4"/>
<path class="st0" d="M352.5,280c-2.8,0-5.4,0-8.2,0c0-0.6-0.1-1.1-0.1-1.6c0-8.3,0-16.6,0-24.8c0-0.8,0.4-1.7,0.9-2.3
	c2.3-2.5,4.7-4.8,7.3-7.4C352.5,256.1,352.5,268,352.5,280z"/>
</svg>
