<?xml version="1.0" encoding="utf-8"?>
<!-- Generator: Adobe Illustrator 26.3.1, SVG Export Plug-In . SVG Version: 6.00 Build 0)  -->
<svg version="1.1" id="Layer_1" xmlns="http://www.w3.org/2000/svg" xmlns:xlink="http://www.w3.org/1999/xlink" x="0px" y="0px"
	 viewBox="0 0 512 74.5" style="enable-background:new 0 0 512 74.5;" xml:space="preserve">
<style type="text/css">
	.st0{fill:#0077FF;}
</style>
<path class="st0" d="M512,74.6c-6.2,0-11.8,0.2-17.2-0.2c-1.2,0-2.5-1.1-3.4-2c-9.3-9-18.6-18.1-27.8-27.2c-0.3-0.3-0.8-0.6-1.2-1.1
	c-4.9,4.8-9.7,9.6-14.5,14.2c-4.9,4.9-10.1,9.9-15,14.7c-0.6,0.6-1.7,1.2-2.6,1.2c-4.9,0.2-9.7,0-15-0.5
	c13.1-12.7,26.1-25.4,39.4-38.2C442.4,23.8,430.3,12.2,418,0.3c0.9-0.2,1.5-0.3,2-0.3c4.6,0,9.1-0.2,13.8,0c1.2,0,2.6,0.6,3.6,1.5
	c8.8,8.5,17.6,17,26.6,25.7c2.3-2.3,4.6-4.5,7-6.8c6.5-6.3,13-12.8,19.5-19.2c0.6-0.6,1.4-1.2,2.2-1.2c5.1-0.2,10.2,0,16.1,0
	c-12.5,12.1-24.6,23.7-37,35.6C484.9,48.6,498.2,61.3,512,74.6z"/>
<g>
	<path d="M286.3,0.3c0,4.3,0,8.4,0,12.7c-22.1,0-44.1,0-66,0c0-4.2,0-8.4,0-12.7C242.1,0.3,264,0.3,286.3,0.3z"/>
	<path d="M392.6,17.3c0-6,0-11.4,0-17c4.3,0,8.5,0,12.8,0c0.6,2.5,0,4.3-1.9,6C399.9,9.7,396.5,13.5,392.6,17.3z"/>
</g>
<path class="st0" d="M211.3,74.4c-4.3,0-8.4,0-12.7,0c-4.6-17-9.3-34.2-14.1-51.7c-0.5,0.8-0.8,1.2-1.1,1.7
	C177,39.1,170.6,54,164.1,68.7c-0.5,0.9-0.8,1.9-1.2,2.6c-1.4,2.5-3.2,4.2-6.2,4c-3.1,0-5.3-1.7-6.5-4.5c-2.9-6.5-5.7-13.1-8.5-19.6
	c-4.2-9.4-8.2-18.9-12.5-28.9c-1.2,4.8-2.5,9-3.6,13.1c-3.4,12.5-6.8,24.9-10.2,37.4c-0.2,0.6-1.2,1.5-1.9,1.5
	c-3.7,0.2-7.3,0-11.3,0c1.2-4.5,2.3-8.7,3.4-12.8C110.8,42.7,116,24,121.1,5.1c1.1-4.2,2.8-5.9,6-6c3.7-0.2,6,1.4,7.7,5.3
	c7,15.9,13.9,31.9,20.7,48c0.5,1.1,0.9,2,1.7,3.6c2-4.5,3.9-8.5,5.6-12.7c5.7-13.1,11.4-26.5,17.2-39.6c1.4-3.2,3.6-4.5,7-4.3
	c2.6,0.2,4.8,1.9,5.6,4.9c6.2,22.9,12.5,45.8,18.7,68.7C211.1,73.3,211.1,73.8,211.3,74.4z"/>
<path class="st0" d="M320,53.7c0-4,0-7.6,0-11.4c0.9,0,1.9,0,2.6,0c9.4,0,18.9,0,28.5,0c8.5,0,13.5-4.8,13.9-13.3
	c0.2-4.3-0.2-8.5-3.2-11.9c-2.8-3.1-6.3-3.9-10.2-4c-13.1-0.2-26.5,0-39.6,0c-0.5,0-0.8,0.2-1.4,0.3c0,20.3,0,40.5,0,61.1
	c-4,0-7.9,0-11.6,0c-0.5,0-1.1-0.8-1.2-1.4c-0.2-0.6,0-1.2,0-2c0-22.6,0-45.2,0-67.8c0-0.9,0-1.9,0-3.2c1.2,0,2.3,0,3.4,0
	c17,0,33.9,0,50.9,0c15.3,0,25.5,9.7,26,25.1c0.3,7-0.5,13.6-5.1,19c-2.6,3.1-6.2,5.4-9.7,8.4c7,6.8,14.4,14.1,22.1,21.7
	c-6.3,0-12.2,0-17.9,0c-0.8,0-1.5-0.9-2.2-1.5c-5.4-5.9-10.8-11.8-16.1-17.8c-1.1-1.2-2-1.5-3.6-1.5c-7.6,0-15,0-22.6,0
	C322,53.7,321.1,53.7,320,53.7z"/>
<path class="st0" d="M65.1,45.2c-5.6-9.4-11-18.4-16.6-27.7c-3.1,5.3-6.2,10.4-9.1,15.3c-7.9,13.3-15.8,26.6-23.5,39.9
	c-0.8,1.2-1.5,1.9-3.1,1.7c-4.2-0.2-8.2,0-12.8,0c2.5-4.2,4.8-8,7.1-11.9C18.9,42.8,30.8,23,42.5,3.4c1.2-2.2,2.8-4,5.6-4.3
	c3.6-0.5,5.7,1.2,7.4,4c10.1,16.6,20,33.3,30,49.8c3.9,6.3,7.7,12.7,11.4,19c0.5,0.6,0.8,1.4,1.2,2.3c-5.1,0-9.9,0-14.7,0
	c-0.6,0-1.4-0.9-1.9-1.5c-3.1-4.9-6-10.1-9-15.2c-0.9-1.5-1.9-2.2-3.7-2.2c-9.9,0.2-19.8,0-29.5,0c-0.9,0-1.7,0-3.1,0
	c2-3.6,3.7-6.7,5.7-9.7c0.3-0.5,1.4-0.6,2.2-0.6c6,0,12.1,0,18.1,0C63,45.2,63.7,45.2,65.1,45.2z"/>
<rect x="220.1" y="30" width="65.9" height="13"/>
<rect x="220.1" y="61.4" width="66.2" height="13"/>
<path class="st0" d="M405.3,74.4c-4.3,0-8.4,0-12.7,0c0-0.9-0.2-1.7-0.2-2.5c0-12.8,0-25.7,0-38.4c0-1.2,0.6-2.6,1.4-3.6
	c3.6-3.9,7.3-7.4,11.3-11.4C405.3,37.4,405.3,55.8,405.3,74.4z"/>
</svg>
