<?xml version="1.0" encoding="utf-8"?>
<!-- Generator: Adobe Illustrator 26.1.0, SVG Export Plug-In . SVG Version: 6.00 Build 0)  -->
<svg version="1.1" id="Слой_1" xmlns="http://www.w3.org/2000/svg" xmlns:xlink="http://www.w3.org/1999/xlink" x="0px" y="0px"
	 viewBox="0 0 512 512" style="enable-background:new 0 0 512 512;" xml:space="preserve">
<g>
	<g>
		<path d="M329.4,316.2c-6.1,3.8-11.7,7.2-17.3,10.7c0.1,0.2,0.2,0.4,0.3,0.6c6.9-3,13.8-6,20.9-9.1c4.6,5.4,7.3,11.5,7.8,18.4
			c0.1,0.7-1.2,1.9-2,2.3c-10.2,5.5-20.5,10.9-30.7,16.4c-0.8,0.4-1.5,0.9-2.1,1.7c11.5-4.3,23-8.6,34.9-13
			c-0.8,4.5-3.2,7.4-6.8,9.1c-9.6,4.7-19.3,9.4-29.1,13.8c-45.3,20.2-90.6,40.3-135.9,60.4c-0.7,0.3-1.4,0.6-2.3,0.9
			c0.2-2.9,0.2-5.6,0.6-8.3c0.1-0.8,1.2-1.6,2.1-2.1c8.1-4.1,16.2-8.1,24.3-12.2c1-0.5,2.1-1.1,2.9-2c-10,3.4-20.1,6.8-30.3,10.3
			c-0.7-1.8-1.2-3.4-2-5.4c5.4-2.2,10.6-4.3,15.9-6.4c0-0.1-0.1-0.3-0.1-0.4c-5.1,1.2-10.2,2.3-15.3,3.7c-2.3,0.7-3.6,0.2-4.9-1.7
			c-1.3-1.8-2.8-3.5-4.4-5.1c3,6.4,4.7,13.1,5.1,20.1c0.2,2.6,0.1,5.3-0.4,7.9c-0.7,4-3.4,5.8-7.3,4.9
			c-16.8-4.2-23.1-22.4-17.4-33.9c2.2-4.5,5.9-7.4,10.5-9.5c45.3-20.1,90.6-40.3,135.8-60.5c10.4-4.6,20.8-9.3,31.3-13.9
			C319,311.4,324.1,313,329.4,316.2z"/>
		<path d="M270.3,325.4c-1.2,0.6-2,1.1-2.9,1.4c-16.2,7.2-32.3,14.4-48.5,21.7c-1.8,0.8-3.2,0.8-5,0c-11.4-5.1-22.9-10-34.3-15
			c-9.3-4.1-11.7-20.4-4-27.1c0.6-0.5,2-0.4,2.9-0.1c10.9,3.3,21.8,6.7,32.7,10.1c0.4,0.1,0.9,0.2,1.5-0.1
			c-11-5.4-22.1-10.8-33.4-16.3c3.2-4.2,7.5-5.6,12.2-5.4c3.1,0.1,6.4,0.6,9.2,1.8c22.5,9.3,45,18.8,67.5,28.2
			C269,324.7,269.4,325,270.3,325.4z"/>
		<path d="M363.3,375.8c-6.7,2.6-10.6,7.7-12.6,14.9c-10-3.5-19.8-7-29.6-10.4c-0.1,0.2-0.2,0.4-0.3,0.6c3.8,2,7.6,4,11.4,6
			c5,2.6,9.9,5.3,14.9,7.8c1.5,0.7,1.8,1.5,1.6,3.2c-0.3,2.8-0.1,5.7-0.1,9c-8.7-3.5-16.9-6.9-25.1-10.3c-0.1,0.2-0.3,0.4-0.4,0.6
			c2.1,2,4.2,4,6.2,6c-3.9,2.9-4.3,4-2.1,7.6c0.3-0.4,0.6-0.8,0.8-1.1c0.9-1.6,2.3-2.9,4-1.8c1.8,1.2,1.6,3.3,0.5,5
			c-1.8,2.8-5.5,2.3-7.9-0.6c-3.9-4.8-7.8-9.7-12.1-14.1c-7.2-7.3-15.6-13.2-25.3-17.8c1.6-0.7,2.8-1.2,3.9-1.8
			c16.1-7.1,32.2-14.2,48.2-21.4c1.8-0.8,3.2-0.8,5,0c7.4,3.3,14.8,6.4,22.2,9.6c8.4,3.6,13,11.9,11.3,20.8
			c-1.4,7.4-4.8,13.9-10.3,19.2c-2.1,2-4.7,2.8-7.6,2.4c-3.2-0.5-5.2-2.6-5.6-5.9C353.3,392.7,356.6,383.7,363.3,375.8z"/>
	</g>
	<path d="M324.9,201.3c28.3-1.1,19.3-27.6,19.3-27.6c16.7-20.8,9.5-42.2-16.4-48.7"/>
	<path d="M344.2,173.7c16.7-20.8,9.5-42.2-16.4-48.7c-2.5-0.6-5.1-1.1-8.2-1.7c5.8-12.5,0.1-21.4-8.8-28.8
		c-17.9-14.8-37.9-18.3-59.7-10.6c-10.6,3.7-15.4,8.2-24.1,20.8c-25.5-7-40.5,1.6-46.9,27.4c-19.1,2.5-35.3,9.6-36.7,32.1
		c-0.9,14.8,7.4,24.3,20.8,29.6c-3.8,12.4-1,22.5,8,29.3c10.3,7.8,27.1,7.9,39.1-0.2c-13.1-7.4-21.3-17.3-17.4-33.3
		c-16.8-5.9-23.7-17.5-18.1-30c-2.9,14.6,7,21.6,23,26c-4.5,12.2-0.7,23.8,11,31.5c4,2.7,5.5,5.2,5.2,10.1
		c-1.1,16.8,9.5,30.3,26,34.2c6.7,1.6,13.5,2.9,20,5c5.9,1.9,8,6.5,6.1,12.7c-3.1,10.3-1.6,13.9,8.6,18.5
		c8.2,3.7,15.7,7.9,18.1,17.7c4.2-6.5,3.7-12.3-1.4-16.7c-2.2-1.9-4.9-3.2-7.1-5.1c-5.6-4.6-5.7-8.3-0.4-13
		c8.4-7.4,8.1-12.7-1.7-18.4c-5.5-3.2-11.6-5.1-17.5-7.6c-7.7-3.3-10.1-9.9-5.3-16.6c4-5.6,8.5-9.9,17-9.2
		c6.5,0.5,13.9-1.3,19.7-4.4c11.4-6.1,12.4-16.8,3.8-26.4c-1.4-1.5-2.8-3-4.4-4.6c4.3-2.3,8.5-4.1,12.1-6.6
		c10.3-7.3,15.3-20.2,12.6-31.4c-2.8-11.6-12.5-19.7-25.9-21.2c-4.7-0.6-9.6-0.7-14.3-0.5c-4.6,0.2-9.3,1-14.5,1.6
		c13.8-7.6,39.6-5.1,50.3,4.5c15.8,14.1,12.7,38-6.7,51c-2.4,1.6-5,2.9-7.4,4.4c-0.1,0.8,14.9,6.2,22.5,6.4
		C353.2,200.2,343,175.2,344.2,173.7z M249.5,226.5c5-14.6,7.4-37.1-9.6-44.4c0,0-3.2-2.1-3.2-2.1l2.1-2.7
		c4.9-6.7,9.2-15.8,6.8-24.3c-2.3-7.3-9.5-11.8-17.2-12.2c-5.6-0.3-11.6,1.5-15.6,5.9c3.5-4.8,9.6-7.3,15.6-7.5
		c8.3-0.5,17.5,4.3,20.8,12.5c3.4,8.8,0.8,18.3-3.5,26.4C260.6,189.2,257,211.6,249.5,226.5z"/>
</g>
</svg>
