<?xml version="1.0" encoding="utf-8"?>
<!-- Generator: Adobe Illustrator 26.4.1, SVG Export Plug-In . SVG Version: 6.00 Build 0)  -->
<svg version="1.1" id="Layer_1" xmlns="http://www.w3.org/2000/svg" xmlns:xlink="http://www.w3.org/1999/xlink" x="0px" y="0px"
	 viewBox="0 0 353 297" style="enable-background:new 0 0 353 297;" xml:space="preserve">
<style type="text/css">
	.st0{fill:#707070;}
</style>
<g id="Background">
</g>
<g>
	<g>
		<ellipse transform="matrix(0.9732 -0.2298 0.2298 0.9732 -5.016 16.6145)" class="st0" cx="68.8" cy="29.8" rx="29.8" ry="29.8"/>
		<path class="st0" d="M92.8,75.4l-0.8,0.7l0,0l-31.5,27.7l0.6,0.2c1.2,0.4,2.3,1,3.4,1.8h0l27.6-24.2L95,79l0,0l0,0l9.9-8.7
			c0.3,0.1,0.5,0.2,0.8,0.3c0.4,0.1,0.9,0.2,1.3,0.3c0.2,0,0.3,0.1,0.5,0.1c0.5,0,1-0.1,1.5-0.2c0.5-0.1,1-0.4,1.5-0.7
			c0.2-0.1,0.5-0.3,0.7-0.5c0.6-0.5,1-1.1,1.3-1.8c0.9-2,0.7-4.4-0.8-6.1c-0.3-0.3-0.6-0.6-0.9-0.8c-1-0.7-2.1-1.1-3.3-1.1
			c-0.3,0-0.7,0-1,0.1c-1,0.2-1.9,0.6-2.7,1.3c-1.8,1.6-2.3,4-1.6,6.1L92.8,75.4z"/>
		<path class="st0" d="M5,106.8c0.1,0,0.1,0.1,0.2,0.2c0.6,0.4,1.3,0.7,2,1l47.1,16.9c1.1,0.4,2.2,0.6,3.3,0.6c0.5,0,1,0,1.5-0.1
			c0.2,0,0.3-0.1,0.5-0.1c0.3-0.1,0.7-0.1,1-0.2c0.2-0.1,0.4-0.1,0.5-0.2c0.3-0.1,0.6-0.2,0.8-0.3c0.2-0.1,0.4-0.2,0.5-0.3
			c0.2-0.1,0.5-0.3,0.7-0.5c0.2-0.1,0.3-0.3,0.5-0.4c0.2-0.2,0.4-0.4,0.6-0.6c0.2-0.2,0.3-0.3,0.5-0.5c0.2-0.2,0.4-0.4,0.5-0.6
			c0.1-0.2,0.3-0.4,0.4-0.6c0.2-0.2,0.3-0.5,0.4-0.7c0.1-0.2,0.2-0.4,0.3-0.7c0.1-0.2,0.2-0.3,0.2-0.5c0-0.1,0-0.2,0.1-0.3
			c0-0.1,0.1-0.2,0.1-0.3c0.1-0.4,0.2-0.8,0.3-1.2c0-0.1,0-0.3,0-0.4c0-0.3,0.1-0.7,0-1c0-3.9-2.4-7.7-6.3-9.1l-0.4-0.2l-0.1,0
			L25.2,94l7.5-11.3c0.4-0.6,1.1-1.1,1.8-1c1.7,0.3,0.9,1.8,0.9,1.8l-6,9.1l28.2,10.2c0.2-0.3,32.4-28.6,32.4-28.6l-0.8-0.8L86,70.1
			c-1.1-1.1-2.5-1.9-3.9-2.3l-0.2-0.1l-1.2-0.2L35.2,56.8c-1-0.3-2-0.5-3.1-0.5c-0.2,0-0.4,0.1-0.6,0.1c-0.4,0-0.7,0.1-1.1,0.1
			c-0.4,0.1-0.7,0.1-1.1,0.3c-0.5,0.1-0.9,0.3-1.3,0.5c-0.2,0.1-0.4,0.2-0.6,0.3c-0.5,0.3-1.1,0.7-1.5,1.1c-0.1,0.1-0.3,0.3-0.4,0.4
			c-0.4,0.4-0.8,0.9-1.2,1.4c-0.1,0.1-0.1,0.1-0.2,0.2L5.9,88.2l-3.6,5.4c-1,1.5-1.4,3.2-1.5,4.9c-0.1,1.2,0.1,2.3,0.4,3.5
			C2,104,3.3,105.7,5,106.8z"/>
		<path class="st0" d="M170,48.3c-2-0.4-4.1,0.5-5.3,2.1c-1.8,2.4-1.4,5.4,0.4,7.3l-7.9,17c-1.7-0.2-3.5,0.1-5.1,0.9l-40.3,19.9
			L97,80.9l-30.3,26.6c0.5,0.6,1,1.2,1.4,1.9c2.6,4.4,2.4,9.8-0.8,14.1c-1.3,1.8-3.1,3.1-5.2,3.9c-3,1.1-6,1.1-8.8,0.1L14,113.4
			L3.2,144v0l-0.1,0.4c-1.3,3.6-1.2,7.6,0.5,11.3L28.2,210c0.5,1,0.5,2.2,0,3.3l-27,60.5c-3.4,7.7,0,16.6,7.7,20
			c2,0.9,4.1,1.3,6.1,1.3c5.8,0,11.4-3.3,13.9-9L60.3,216c1.3-2.8,1.2-6.1,0-8.9l-13-28.6L78,213c0.6,0.7,1,1.6,1,2.5l2,66.8
			c0.2,8.2,7,14.7,15.1,14.7h0.5c8.4-0.2,14.9-7.2,14.7-15.6l-2.2-75.3c-0.1-2.5-1-5-2.7-6.9l-37.5-42.1l15.1-61.9l19.2,18.9
			c1.8,1.8,4.3,2.8,6.8,2.8c1.5,0,2.9-0.3,4.3-1l31.1-15.3l-3.7,7.9c-0.5,1,0,2.3,1,2.7c0.3,0.1,0.6,0.2,0.9,0.2
			c0.8,0,1.5-0.4,1.9-1.2l5.8-12.6l9.5-4.7c4.8-2.3,6.7-8.1,4.4-12.9c-0.9-1.8-2.2-3.2-3.9-4.1l7.6-16.5c2.2,0.1,4.4-1.1,5.4-3.2
			C175.7,52.9,173.8,48.9,170,48.3z"/>
	</g>
	<g>
		<path class="st0" d="M117,297c-1,0-1.8-0.8-1.8-1.8v-5.8c0-1.3,1.1-2.4,2.4-2.4h58.9c1.3,0,2.4,1.1,2.4,2.4v5.8
			c0,1-0.8,1.8-1.8,1.8H117z"/>
		<g>
			<polygon class="st0" points="144.4,152.6 125.7,152.6 135.1,202.1 			"/>
			<polygon class="st0" points="168.5,152.6 149.8,152.6 159.1,202.1 			"/>
			<path class="st0" d="M181.1,191.4c1.6-3.6,2.5-7.6,2.9-11.8l2-27h-12.2L181.1,191.4z"/>
			<path class="st0" d="M147.1,163.1l-9.3,49.5c3,0.8,6.1,1.2,9.3,1.2l0,0c3.2,0,6.3-0.4,9.3-1.2L147.1,163.1z"/>
			<path class="st0" d="M171.2,163.1l-9,47.5c6.3-2.8,11.6-7.3,15.5-12.9L171.2,163.1z"/>
			<path class="st0" d="M113.1,191.4l7.3-38.8h-12.2l2,27C110.5,183.8,111.5,187.8,113.1,191.4z"/>
			<path class="st0" d="M123.1,163.1l-6.5,34.6c3.9,5.7,9.2,10.1,15.5,12.9L123.1,163.1z"/>
		</g>
		<path class="st0" d="M147.1,222.1L147.1,222.1c-5.7,0-11.1-1.3-16-3.6l-8.5,62.3h48.9l-8.5-62.3
			C158.2,220.9,152.8,222.1,147.1,222.1z"/>
		<path class="st0" d="M117.2,134.2c-7.6,0-13.7,6.1-13.7,13.7h87.3c0-7.6-6.1-13.7-13.7-13.7H117.2z"/>
	</g>
	<g>
		<path class="st0" d="M315.3,29.7c0-17.4-14.9-22.3-20-22.3c-5.1,0-9.3,4.1-9.3,9.3c0,0.6,0.1,1.2,0.2,1.8
			c-4.8-4.1-11-6.5-17.8-6.5c-15.2,0-27.6,12.4-27.6,27.6s12.4,27.6,27.6,27.6c15.2,0,27.6-12.4,27.6-27.6c0-5.2-1.4-10.1-3.9-14.2
			c1,0.4,2.1,0.6,3.2,0.6C300.4,25.9,304.4,19.4,315.3,29.7z"/>
		<path class="st0" d="M314.5,104.6l21.4,47.5c1.5,3.3,4.7,5.3,8.1,5.3c1.2,0,2.5-0.3,3.7-0.8c4.5-2,6.5-7.3,4.5-11.8l-22.6-50.3
			c-0.8-1.8-2.2-3.3-4-4.2l-33.1-17.5c-1.3-0.7-2.7-1-4.2-1h-36.9l-51.6-24.1L185.6,6c-1.6-4.7-6.7-7.1-11.3-5.6
			c-4.7,1.6-7.2,6.7-5.6,11.3l15.4,45.1c0.8,2.3,2.5,4.2,4.7,5.2l49.1,22.9l6,44.4l-24.1,72.9c0,0,7.4,2.6,17.1,5.2l-4.8,18.4
			c-0.7,2.5-0.6,5.2,0.2,7.6l16.4,53.5c1.9,6,7.4,9.9,13.4,9.9c1.4,0,2.8-0.2,4.1-0.6c7.4-2.3,11.6-10.1,9.3-17.5l-15.3-49.7
			l4.3-16.5c1.2,0.1,2.4,0.1,3.6,0.1l-1.8,16.1c-0.5,4.5,1.2,9,4.6,12c2.6,2.3,5.9,3.6,9.4,3.6c1,0,2-0.1,3-0.3l55.6-12.4
			c7.6-1.7,12.3-9.2,10.7-16.7c-1.7-7.6-9.2-12.3-16.7-10.7l-36.5,8.1l0.4-4c8.4-2.2,14.4-4.3,14.4-4.3l-25.3-74.8l6.7-36.4
			L314.5,104.6z"/>
	</g>
</g>
</svg>
