<?xml version="1.0" encoding="utf-8"?>
<!-- Generator: Adobe Illustrator 26.3.1, SVG Export Plug-In . SVG Version: 6.00 Build 0)  -->
<svg version="1.1" id="Layer_1" xmlns="http://www.w3.org/2000/svg" xmlns:xlink="http://www.w3.org/1999/xlink" x="0px" y="0px"
	 viewBox="0 0 30 22" style="enable-background:new 0 0 30 22;" xml:space="preserve">
<style type="text/css">
	.st0{fill:#010202;}
</style>
<g>
	<g>
		<g id="XMLID_2296_">
			<circle id="XMLID_2348_" class="st0" cx="9.7" cy="3.3" r="2.8"/>
			<path id="XMLID_2346_" class="st0" d="M1.5,16.3c-0.1,0.1-0.1,0.3-0.1,0.6c0,0,0,0,0,0.1c0,0,0,0,0,0.1c0,0,0,0,0,0.1l0,0l0,0
				c0,0,0,0.1,0.1,0.1l0,0l0,0l0,0c0,0,0,0,0.1,0.1l0,0l0,0l0,0l0,0c0.1,0,0.3,0.1,0.4,0c0,0,0,0,0.1,0c0,0,0,0,0.1,0l0,0
				c0,0,0,0,0.1,0c0,0,0,0,0.1,0l0,0L8.5,15l2.2,5.8c0.1,0.3,0.3,0.4,0.6,0.6c0.3,0.1,0.4,0.1,0.7,0c0.6-0.1,0.7-0.7,0.6-1.3
				l-1.3-3.5c-0.1,0-0.1,0-0.3-0.1c-0.1,0-0.1-0.1-0.3-0.1l-3.8-2.6H6.8v-0.1l0,0l-2.5,1.2L6,11L5.2,8.1l0,0L1.5,16.3L1.5,16.3z"/>
			<path id="XMLID_2344_" class="st0" d="M11.4,16.3c0.4,0.1,0.9,0,1.2-0.3c0.3-0.4,0.1-1-0.3-1.5l-3.2-2.3L7.8,7.4
				C7.6,6.9,7.1,6.6,6.5,6.8C5.9,6.9,5.6,7.5,5.7,8.1l1.6,5.4l3.8,2.6C11.3,16.1,11.3,16.3,11.4,16.3z"/>
		</g>
		<g id="XMLID_2256_">
			<circle id="XMLID_2260_" class="st0" cx="20.2" cy="3.3" r="2.8"/>
			<path id="XMLID_2258_" class="st0" d="M28.4,16.3c0.1,0.1,0.1,0.3,0.1,0.6c0,0,0,0,0,0.1c0,0,0,0,0,0.1c0,0,0,0,0,0.1l0,0l0,0
				c0,0,0,0.1-0.1,0.1l0,0l0,0l0,0c0,0,0,0-0.1,0.1l0,0l0,0l0,0l0,0c-0.1,0-0.3,0.1-0.4,0c0,0,0,0-0.1,0c0,0,0,0-0.1,0l0,0
				c0,0,0,0-0.1,0c0,0,0,0-0.1,0l0,0L21.4,15l-2.2,5.8c-0.1,0.3-0.3,0.4-0.6,0.6c-0.3,0.1-0.4,0.1-0.7,0c-0.6-0.1-0.7-0.7-0.6-1.3
				l1.3-3.5c0.1,0,0.1,0,0.3-0.1c0.1,0,0.1-0.1,0.3-0.1l3.8-2.6h0.1v-0.1l0,0l2.5,1.2L23.9,11l0.9-2.9l0,0L28.4,16.3L28.4,16.3z"/>
			<path id="XMLID_2257_" class="st0" d="M18.5,16.3c-0.4,0.1-0.9,0-1.2-0.3c-0.3-0.4-0.1-1,0.3-1.5l3.2-2.3l1.3-4.8
				c0.1-0.6,0.7-0.9,1.3-0.7c0.6,0.1,0.9,0.7,0.7,1.3l-1.6,5.4L18.8,16C18.6,16.1,18.6,16.3,18.5,16.3z"/>
		</g>
	</g>
	<circle cx="27.5" cy="19.5" r="1.9"/>
	<circle cx="2.7" cy="19.5" r="1.9"/>
</g>
</svg>
