<?xml version="1.0" encoding="utf-8"?>
<!-- Generator: Adobe Illustrator 26.5.0, SVG Export Plug-In . SVG Version: 6.00 Build 0)  -->
<svg version="1.1" id="Слой_1" xmlns="http://www.w3.org/2000/svg" xmlns:xlink="http://www.w3.org/1999/xlink" x="0px" y="0px"
	 viewBox="0 0 25 21.1" style="enable-background:new 0 0 25 21.1;" xml:space="preserve">
<style type="text/css">
	.st0{fill:#0077FF;}
</style>
<path class="st0" d="M22.3,0H2.7C1.2,0,0,1.2,0,2.7v15.7c0,1.5,1.2,2.7,2.7,2.7h19.5c0.7,0,1.4-0.3,1.9-0.8c0.5-0.5,0.8-1.2,0.8-1.9
	V2.7C25,1.2,23.8,0,22.3,0z M23.4,3.7v14.7c0,0.3-0.1,0.6-0.3,0.8h0c-0.2,0.2-0.5,0.3-0.8,0.3H2.7c-0.6,0-1.1-0.5-1.1-1.1V4l8.4,8.4
	c1.3,1.3,3.5,1.3,4.7,0L23.4,3.7z M13.6,11.2c-0.7,0.7-1.8,0.7-2.5,0L1.9,2c0.2-0.3,0.5-0.4,0.9-0.4h19.5c0.3,0,0.5,0.1,0.7,0.3
	L13.6,11.2z"/>
</svg>
