<?xml version="1.0" encoding="utf-8"?>
<!-- Generator: Adobe Illustrator 25.4.1, SVG Export Plug-In . SVG Version: 6.00 Build 0)  -->
<svg version="1.1" id="Слой_1" xmlns="http://www.w3.org/2000/svg" xmlns:xlink="http://www.w3.org/1999/xlink" x="0px" y="0px"
	 viewBox="0 0 512 512" style="enable-background:new 0 0 512 512;" xml:space="preserve">
<style type="text/css">
	.st0{fill:none;stroke:#000000;stroke-width:3;stroke-miterlimit:10;}
	.st1{fill:none;stroke:#000000;stroke-width:3;stroke-linecap:round;stroke-miterlimit:10;}
	.st2{fill:none;stroke:#000000;stroke-width:3;stroke-linecap:round;stroke-linejoin:round;stroke-miterlimit:10;}
</style>
<g>
	<path class="st0" d="M311.7,373.2l-17.9-101.4c-10.8,6-23.3,9.5-36.5,9.5c0,0,0,0-0.1,0c0,0,0,0-0.1,0c-13.3,0-25.7-3.4-36.5-9.5
		l-17.9,101.4v0c-0.5,1.5-0.8,3-0.8,4.5c0,1.7,0.4,3.4,1,5.1c1.4,3.5,4.4,6.8,8.5,9.7c9.9,7,26.7,11.6,45.7,11.6c0,0,0.1,0,0.1,0
		c0,0,0.1,0,0.1,0c19,0,35.8-4.6,45.7-11.6c4.1-2.9,7-6.2,8.5-9.7c0.7-1.6,1-3.3,1-5.1C312.4,376.1,312.2,374.6,311.7,373.2
		L311.7,373.2z"/>
	<path class="st0" d="M178.3,155.4c17.1,9.3,46,15.4,78.7,15.4c0,0,0.1,0,0.1,0c0,0,0.1,0,0.1,0c32.7,0,61.6-6.1,78.7-15.4
		c7.1-3.8,12.1-8.2,14.6-12.9c1.2-2.2,1.8-4.4,1.8-6.7c0-14-22.3-26.1-54.6-31.7c0,0,0,0,0,0c-12.3-2.1-26-3.3-40.5-3.3
		c0,0-0.1,0-0.1,0c0,0-0.1,0-0.1,0c-14.5,0-28.2,1.2-40.5,3.3c0,0,0,0,0,0c-32.3,5.6-54.6,17.7-54.6,31.7c0,2.3,0.6,4.6,1.8,6.7
		C166.2,147.2,171.2,151.6,178.3,155.4z"/>
	<path class="st1" d="M379.6,147.9c0.8-1,1.4-2.1,2-3.2c1.6-2.9,2.4-5.9,2.4-9c0-4.5-1.8-8.8-5-13"/>
	<path class="st1" d="M364.7,151.3c2.5-2.3,4.5-4.8,5.8-7.3c1.4-2.7,2.2-5.4,2.2-8.2c0-5.5-2.8-10.7-8-15.5"/>
	<path class="st1" d="M132.4,147.9c-0.8-1-1.4-2.1-2-3.2c-1.6-2.9-2.4-5.9-2.4-9c0-4.5,1.8-8.8,5-13"/>
	<path class="st1" d="M147.3,151.3c-2.5-2.3-4.5-4.8-5.8-7.3c-1.4-2.7-2.2-5.4-2.2-8.2c0-5.5,2.8-10.7,8-15.5"/>
	<g>
		<path class="st2" d="M228.9,237.4L228.9,237.4l-0.1-0.3c-0.3-0.9-0.6-1.7-0.8-2.6l-0.6-1.9c-4.1-13.7-7.3-29.1-9.5-45.4
			c-19.2-3-35.5-8.1-46.5-14.5c0,0-0.1,0-0.1-0.1c-8.2-4.8-13.5-10.4-14.9-16.3c4,28.7,15.8,54.9,33.1,76.5c0,0,0,0,0,0
			c0.9,1.1,1.7,2.1,2.6,3.2c0,0,0.1,0.1,0.1,0.1c13.3,15.3,31.8,25.8,52.8,28.8C238.8,259.7,233.2,250.4,228.9,237.4z"/>
		<path class="st2" d="M279.2,236.1c0,0,0-0.1,0-0.1c0.3-1.1,0.6-2.1,0.9-3.2c0,0,0,0,0,0c3.6-13.4,6.5-28.5,8.5-45
			c-9.8,1.5-20.4,2.4-31.5,2.4l0,0l0,0h0c-11.1,0-21.7-0.9-31.5-2.4c2,16.4,4.9,31.6,8.5,45c0,0,0,0,0,0c0.3,1.1,0.6,2.1,0.9,3.2
			c0,0,0,0.1,0,0.1c5.3,18.2,13.2,29.7,22,29.7c0,0,0,0,0,0C266,265.7,273.9,254.2,279.2,236.1z"/>
		<path class="st2" d="M343.1,172.6c0,0-0.1,0-0.1,0.1c-11,6.4-27.2,11.6-46.5,14.5c-2.2,16.3-5.4,31.7-9.5,45.4l-0.6,1.9
			c-0.3,0.9-0.5,1.7-0.8,2.5l-0.1,0.4l0,0c-4.3,12.9-9.8,22.2-16.1,27.4c21-3,39.6-13.5,52.8-28.8c0,0,0.1-0.1,0.1-0.1
			c0.9-1.1,1.8-2.1,2.6-3.2c0,0,0,0,0,0c17.3-21.5,29.1-47.8,33.1-76.5C356.6,162.2,351.3,167.8,343.1,172.6z"/>
	</g>
</g>
</svg>
