<?xml version="1.0" encoding="utf-8"?>
<!-- Generator: Adobe Illustrator 26.5.0, SVG Export Plug-In . SVG Version: 6.00 Build 0)  -->
<svg version="1.1" id="Layer_1" xmlns="http://www.w3.org/2000/svg" xmlns:xlink="http://www.w3.org/1999/xlink" x="0px" y="0px"
	 viewBox="0 0 21 21" style="enable-background:new 0 0 21 21;" xml:space="preserve">
<style type="text/css">
	.st0{fill:#0077FF;}
</style>
<g>
	<path class="st0" d="M10.5,0C4.7,0,0,4.7,0,10.5C0,16.3,4.7,21,10.5,21S21,16.3,21,10.5C21,4.7,16.3,0,10.5,0z M10.5,1.8
		c4.8,0,8.7,3.9,8.7,8.7c0,4.8-3.9,8.7-8.7,8.7s-8.7-3.9-8.7-8.7C1.8,5.7,5.7,1.8,10.5,1.8z"/>
	<path class="st0" d="M7.2,9.3c1.2,0,2.2-1,2.2-2.2S8.4,5,7.2,5S5,6,5,7.2C5,8.4,6,9.3,7.2,9.3z M7.2,7.5C7,7.5,6.8,7.3,6.8,7.2
		S7,6.8,7.2,6.8S7.5,7,7.5,7.2S7.4,7.5,7.2,7.5z"/>
	<path class="st0" d="M13.8,9.3c1.2,0,2.2-1,2.2-2.2S15,5,13.8,5s-2.2,1-2.2,2.2S12.6,9.3,13.8,9.3z M13.8,7.5
		c-0.2,0-0.3-0.1-0.3-0.3s0.1-0.3,0.3-0.3s0.3,0.1,0.3,0.3S14,7.5,13.8,7.5z"/>
	<path class="st0" d="M10.5,17.2c3,0,5.5-2.5,5.5-5.5v-0.5h-1.8v0.5c0,2-1.6,3.7-3.7,3.7s-3.7-1.6-3.7-3.7v-0.5H5v0.5
		C5,14.8,7.5,17.2,10.5,17.2z"/>
</g>
</svg>
