<?xml version="1.0" encoding="utf-8"?>
<!-- Generator: Adobe Illustrator 25.4.1, SVG Export Plug-In . SVG Version: 6.00 Build 0)  -->
<svg version="1.1" id="Слой_1" xmlns="http://www.w3.org/2000/svg" xmlns:xlink="http://www.w3.org/1999/xlink" x="0px" y="0px"
	 viewBox="0 0 512 512" style="enable-background:new 0 0 512 512;" xml:space="preserve">
<style type="text/css">
	.st0{fill:none;stroke:#000000;stroke-width:3;stroke-miterlimit:10;}
</style>
<g>
	<path class="st0" d="M171.1,392c-0.9-2.2-1.4-3.3-1.8-4.5c-8.1-19.4-10.2-39.4-4.9-59.8c3.8-14.9,8.1-29.6,12.2-44.5
		c3.1-11,6.2-21.9,9.4-33.4c8.7,9.1,17,17.7,25.7,26.7c15.1-24,29.9-47.7,45.1-71.9c15.2,24.3,30.1,48,45.2,71.9
		c8.7-9.1,17-17.7,25.5-26.6c0.4,1.2,0.8,1.9,1,2.6c6.7,23.9,13.4,47.8,20.1,71.7c4.3,15.2,4.9,30.6,1.3,46c-1.7,7.1-4.3,14-6.4,21
		c0.5-0.4,1.2-0.8,1.7-1.3c39.4-34.9,56-78.4,47.6-130.4c-2.6-16.3-8.2-32-12.5-48c-2.9-10.6-5.9-21.2-9-32.4
		c-11.8,12.2-23.1,24-34.8,36.2c-26.6-42.5-53-84.4-79.6-126.9c-26.7,42.6-53,84.5-79.6,126.9c-11.7-12.2-23-24-34.6-36
		c-0.5,1.3-0.8,2.1-1.1,3c-5.9,21.1-12.1,42.2-17.7,63.4c-11.2,41.8-4.6,80.8,19.5,116.7C150.7,373.4,159.8,383.1,171.1,392z"/>
	<path class="st0" d="M256.7,336.2c-19.9,0-36,16.2-36,36c0,1.8,0.1,3.5,0.4,5.2c2.5,17.4,17.5,30.8,35.6,30.8s33.1-13.4,35.6-30.8
		c0.2-1.7,0.4-3.4,0.4-5.2C292.7,352.4,276.5,336.2,256.7,336.2z"/>
</g>
</svg>
