<?xml version="1.0" encoding="utf-8"?>
<!-- Generator: Adobe Illustrator 26.5.0, SVG Export Plug-In . SVG Version: 6.00 Build 0)  -->
<svg version="1.1" id="Layer_1" xmlns="http://www.w3.org/2000/svg" xmlns:xlink="http://www.w3.org/1999/xlink" x="0px" y="0px"
	 viewBox="0 0 16 15" style="enable-background:new 0 0 16 15;" xml:space="preserve">
<style type="text/css">
	.st0{fill:#707070;}
</style>
<path class="st0" d="M8,5h5.7l-2.5-2.5c-0.3-0.3-0.3-0.7,0-1s0.7-0.3,1,0l3.7,3.7c0.1,0.1,0.1,0.1,0.1,0.2c0.1,0.2,0.1,0.4,0,0.5
	c0,0.1-0.1,0.2-0.1,0.2l-3.7,3.7C12,9.9,11.8,10,11.7,10c-0.2,0-0.4-0.1-0.5-0.2c-0.3-0.3-0.3-0.7,0-1l2.5-2.5H8
	c-3.7,0-6.6,3-6.6,6.6c0,0.4-0.3,0.7-0.7,0.7S0,13.4,0,13C0,8.6,3.6,5,8,5z"/>
</svg>
