<?xml version="1.0" encoding="utf-8"?>
<!-- Generator: Adobe Illustrator 26.4.1, SVG Export Plug-In . SVG Version: 6.00 Build 0)  -->
<svg version="1.1" id="Layer_1" xmlns="http://www.w3.org/2000/svg" xmlns:xlink="http://www.w3.org/1999/xlink" x="0px" y="0px"
	 viewBox="0 0 24 24" style="enable-background:new 0 0 24 24;" xml:space="preserve">
<style type="text/css">
	.st0{fill:#717171;}
</style>
<path class="st0" d="M20.2,10.3C20.2,10.3,20.2,10.3,20.2,10.3c0-0.1,0.1-0.2,0.1-0.2c0-0.1,0-0.1,0-0.2c0,0,0,0,0,0
	c0-0.1-0.1-0.1-0.1-0.1c0,0,0,0,0,0l-3.7-3.5c-0.2-0.2-0.5-0.2-0.7,0c-0.2,0.2-0.2,0.5,0,0.7l2.8,2.6H9.5c-3.2,0-5.8,2.6-5.8,5.8v2
	c0,0.3,0.2,0.5,0.5,0.5c0.3,0,0.5-0.2,0.5-0.5v-2c0-2.6,2.1-4.8,4.8-4.8h9.1l-2.8,2.6c-0.2,0.2-0.2,0.5,0,0.7
	c0.1,0.1,0.2,0.2,0.4,0.2c0.1,0,0.2,0,0.3-0.1l3.7-3.5c0,0,0,0,0,0C20.2,10.4,20.2,10.4,20.2,10.3z"/>
</svg>
