<?xml version="1.0" encoding="utf-8"?>
<!-- Generator: Adobe Illustrator 26.5.0, SVG Export Plug-In . SVG Version: 6.00 Build 0)  -->
<svg version="1.1" id="Слой_1" xmlns="http://www.w3.org/2000/svg" xmlns:xlink="http://www.w3.org/1999/xlink" x="0px" y="0px"
	 viewBox="0 0 25 26" style="enable-background:new 0 0 25 26;" xml:space="preserve">
<style type="text/css">
	.st0{fill:#0077FF;}
</style>
<path class="st0" d="M22.7,16.5L15.3,8c-0.4-0.6-1.2-1.6-1.6-2.1c0-0.4-0.2-1.8-0.3-2.2l-1-3.8l-1,3.8c-0.1,0.3-0.2,1.2-0.3,2.1
	l0,0.1C10.8,6.5,10,7.5,9.7,8l-7.3,8.5C2.1,16.7,2,17,2,17.3c0,0.3,0.1,0.7,0.3,0.9c0.1,0.1,0.2,0.2,0.4,0.4
	c0.6,0.3,1.1,0.5,1.7,0.6V24c0,0.8,0.6,1.5,1.4,1.6c0.7,0.1,1.4,0.2,2.2,0.2c0.7,0.1,1.6,0.1,2.6,0.1c0.6,0,1.2-0.5,1.2-1.2v-2.4
	c0-0.4,0.3-0.7,0.7-0.7s0.7,0.3,0.7,0.7v2.4c0,0.6,0.5,1.2,1.2,1.2c1.4,0,2.7-0.1,4-0.3l0.7-0.1c0.8-0.1,1.4-0.8,1.4-1.6v-4.7
	c0.6-0.1,1.2-0.3,1.8-0.6c0.2-0.1,0.3-0.2,0.4-0.3c0.2-0.3,0.4-0.6,0.3-1C23,17,22.9,16.7,22.7,16.5z M21.7,17.4
	C21.7,17.4,21.7,17.4,21.7,17.4L21.7,17.4L21.7,17.4z M12.5,20.4c-1.2,0-2.1,0.9-2.1,2.1v2.2c-0.8,0-1.5-0.1-2.3-0.1
	c-0.8-0.1-1.5-0.1-2.1-0.2c-0.1,0-0.2-0.1-0.2-0.3v-4.4c0.3,0,0.6,0.1,0.9,0.1c0.5,0.1,0.9,0.1,1.4,0.1C9,19.9,9.9,20,10.8,20
	c0.6,0,1.1,0,1.7,0c2.2,0,4-0.1,5.8-0.3l0.1,0c0.2,0,0.5-0.1,0.7-0.1V24c0,0.1-0.1,0.3-0.2,0.3l-0.7,0.1c-1.2,0.1-2.3,0.2-3.6,0.3
	v-2.2C14.6,21.3,13.7,20.4,12.5,20.4z M20.2,18c-1.1,0.2-2.1,0.4-3.3,0.5c-0.9,0.1-1.8,0.1-2.7,0.1c-1.1,0-2.2,0-3.2,0
	c-0.9,0-1.8-0.1-2.7-0.1c-1.3-0.1-2.4-0.2-3.3-0.5c-0.5-0.1-1-0.2-1.4-0.5c0,0-0.1,0-0.1,0l7.4-8.6c0.5-0.7,1.7-2.2,1.7-2.3l0,0l0,0
	c0,0,1.2,1.5,1.8,2.3l7.4,8.6c0,0,0,0-0.1,0C21.2,17.7,20.6,17.9,20.2,18z"/>
</svg>
