<?xml version="1.0" encoding="utf-8"?>
<!-- Generator: Adobe Illustrator 26.4.1, SVG Export Plug-In . SVG Version: 6.00 Build 0)  -->
<svg version="1.1" id="Слой_1" xmlns="http://www.w3.org/2000/svg" xmlns:xlink="http://www.w3.org/1999/xlink" x="0px" y="0px"
	 viewBox="0 0 327 388.7" style="enable-background:new 0 0 327 388.7;" xml:space="preserve">
<style type="text/css">
	.st0{fill:#707070;}
</style>
<g>
	<g>
		<path class="st0" d="M50.6,284.5c6.9,1.2,13.9,2.3,20.8,3.1c7.3,0.9,14.7,1.6,22.1,2.2c14.6,1.1,29.3,2.1,43.9,2.4
			c9.4,0.2,18.8,0.3,28.2,0.3c30.4,0,60.8-1.3,91.1-5c0.5-0.1,1.1-0.1,1.7-0.1c6.3-0.8,12.6-1.6,19-2.8v77.8c0,5.1-3.7,9.5-8.9,10.2
			c-3.9,0.5-7.6,1-11.5,1.5c-20.7,2.6-41.3,4-62.1,4.6c-1.5,0-2.7-1.1-2.7-2.6v-38.2c0-15.4-12.4-27.8-27.8-27.8
			s-27.8,12.4-27.8,27.8v38.2c0,1.5-1.2,2.6-2.7,2.6c-13.5-0.4-26.9-1.3-40.3-2.3c-11.6-0.9-23-2.1-34.3-3.8
			c-5-0.8-8.7-5.1-8.7-10.2V284.5 M287.4,272.6l-11.8,2.2c-5.9,1.1-11.7,1.9-17.8,2.6c-0.7,0-1.6,0-2.5,0.2
			c-26.9,3.3-56.2,4.9-89.6,4.9c-8.9,0-18.1-0.1-28-0.3c-15-0.3-30.3-1.4-43.3-2.4c-8.2-0.7-15.3-1.4-21.7-2.2l0,0l0,0
			c-5.9-0.7-12.3-1.6-20.2-3l-11.7-2v11.9v77.9c0,10,7.2,18.5,17.1,20.1l0,0l0,0c10.8,1.6,22.2,2.9,35,3.9c12.9,1,26.8,1.9,40.8,2.3
			l0.1,0h0.1c7,0,12.7-5.7,12.7-12.6v-38.2c0-9.8,8-17.8,17.8-17.8s17.8,8,17.8,17.8v38.2c0,6.9,5.7,12.6,12.7,12.6h0.1l0.1,0
			c22.6-0.7,43.2-2.2,63.1-4.7c2-0.3,3.9-0.5,5.8-0.8c1.9-0.2,3.8-0.5,5.7-0.7l0,0l0,0c10-1.3,17.6-10,17.6-20.1v-77.8V272.6
			L287.4,272.6z"/>
	</g>
	<g>
		<path class="st0" d="M163.6,40.9c1.5,5.9,4.7,37.6,4.7,37.6s19.5,24.5,28.2,36.7l118.7,138.3c2.3,1.8,2.3,4.4,0.5,6.4
			c-0.9,1-2.1,1.9-3.3,2.7c-7.4,4.5-15.9,6.6-24.3,8.4c-17.9,3.8-36,6.1-54.4,7.4c-14.6,1.1-29.2,2.1-43.9,2.4
			c-8.7,0.2-17.5,0.3-26.3,0.3c-8.7,0-17.5-0.1-26.3-0.3c-14.6-0.3-29.3-1.3-43.9-2.4c-18.3-1.3-36.5-3.5-54.4-7.4
			c-8.5-1.8-17-3.9-24.3-8.4c-1.2-0.7-2.4-1.6-3.3-2.7c-1.8-2-1.8-4.7,0.3-6.4l119.1-138.3c8.7-12.2,28.2-36.7,28.2-36.7
			S162.1,46.9,163.6,40.9 M163.5,0l-9.6,38.5c-1.4,5.6-3.7,27.2-4.6,36.1c-5,6.4-19.1,24.2-26.4,34.4L4.5,246.5
			c-2.6,2.4-4.2,5.6-4.4,9.1c-0.3,3.9,1,7.7,3.7,10.8c1.5,1.8,3.4,3.4,5.7,4.8c8.8,5.4,18.3,7.7,27.4,9.6
			c16.7,3.6,34.9,6.1,55.8,7.6c13.3,1,28.9,2.1,44.4,2.4c8.8,0.2,17.7,0.3,26.5,0.3c8.9,0,17.8-0.1,26.5-0.3
			c15.5-0.3,31-1.4,44.4-2.4c20.1-1.4,38.4-3.9,55.7-7.6c9-1.9,18.6-4.3,27.4-9.6l0.2-0.1l0.2-0.1c2.2-1.5,3.8-2.8,5.2-4.3
			c2.8-3.1,4.2-7,3.8-10.9c-0.3-3.5-1.9-6.8-4.6-9.2L204.4,109C197,98.8,183,80.9,178,74.6c-0.9-8.9-3.3-30.6-4.7-36.1L163.5,0
			L163.5,0z"/>
	</g>
</g>
</svg>
