<?xml version="1.0" encoding="utf-8"?>
<!-- Generator: Adobe Illustrator 25.4.1, SVG Export Plug-In . SVG Version: 6.00 Build 0)  -->
<svg version="1.1" id="Слой_1" xmlns="http://www.w3.org/2000/svg" xmlns:xlink="http://www.w3.org/1999/xlink" x="0px" y="0px"
	 viewBox="0 0 512 512" style="enable-background:new 0 0 512 512;" xml:space="preserve">
<style type="text/css">
	.st0{fill:none;stroke:#000000;stroke-width:3;stroke-miterlimit:10;}
</style>
<g>
	<path class="st0" d="M351.4,333c-0.5,0.1-1.1,0.1-1.6,0.2c-39.9,4.9-80,5.6-120.2,4.7c-14.7-0.3-29.5-1.3-44.2-2.4
		c-7.5-0.6-14.9-1.3-22.3-2.2c-7-0.8-14-1.9-21-3.1v26v52.5c0,5.1,3.7,9.5,8.8,10.3c11.4,1.7,22.9,2.9,34.5,3.8
		c13.5,1,27,1.9,40.6,2.3c1.5,0,2.7-1.1,2.7-2.6v-38.5c0-15.5,12.5-28,28-28h0c15.5,0,28,12.5,28,28v38.5c0,1.5,1.2,2.6,2.7,2.6
		c20.9-0.6,41.7-2,62.5-4.6c3.9-0.5,7.7-1,11.6-1.5c5.2-0.7,9-5.1,9-10.3v-54.6v-23.9C364.1,331.4,357.7,332.2,351.4,333z"/>
	<path class="st0" d="M408.9,298.9c-5.8-4.8-97.9-110.5-101.4-115.5c-1.5-2.1-17.1-20.1-18.4-21.9c-8.8-12.3-28.4-37-28.4-37
		s-3.3-31.9-4.7-37.9c-1.5,6-4.7,37.9-4.7,37.9s-19.6,24.7-28.4,37c-1.3,1.8-16.9,19.7-18.4,21.9c-3.5,5-95.6,110.6-101.4,115.5
		c-2.1,1.7-2.1,4.4-0.3,6.4c0.9,1,2.1,1.9,3.3,2.7c7.5,4.6,16,6.7,24.5,8.5c18,3.9,36.4,6.2,54.8,7.5c14.7,1.1,29.4,2.1,44.2,2.4
		c8.8,0.2,17.6,0.3,26.5,0.3c8.8,0,17.6-0.1,26.5-0.3c14.7-0.3,29.5-1.3,44.2-2.4c18.4-1.4,36.8-3.6,54.8-7.5
		c8.6-1.9,17.1-4,24.5-8.5c1.2-0.7,2.4-1.6,3.3-2.7C411,303.3,411,300.7,408.9,298.9z"/>
</g>
</svg>
