<?xml version="1.0" encoding="utf-8"?>
<!-- Generator: Adobe Illustrator 26.5.0, SVG Export Plug-In . SVG Version: 6.00 Build 0)  -->
<svg version="1.1" id="Layer_1" xmlns="http://www.w3.org/2000/svg" xmlns:xlink="http://www.w3.org/1999/xlink" x="0px" y="0px"
	 viewBox="0 0 15.5 14" style="enable-background:new 0 0 15.5 14;" xml:space="preserve">
<style type="text/css">
	.st0{fill:#707070;}
</style>
<g id="Path_4">
	<path class="st0" d="M7.8,14L1.3,7.5c-1.7-1.7-1.7-4.5,0-6.2C2.1,0.5,3.2,0,4.4,0c0,0,0,0,0,0c1.2,0,2.3,0.5,3.1,1.3l0.3,0.3L8,1.3
		c1.7-1.7,4.5-1.7,6.2,0C16,3,16,5.8,14.2,7.5L7.8,14z M4.4,1.4c-0.8,0-1.6,0.3-2.1,0.9c-1.2,1.2-1.2,3.1,0,4.3L7.8,12l5.5-5.5
		c1.2-1.2,1.2-3.1,0-4.3c-1.2-1.2-3.1-1.2-4.3,0h0L7.8,3.5L6.5,2.3C5.9,1.7,5.2,1.4,4.4,1.4C4.4,1.4,4.4,1.4,4.4,1.4z"/>
</g>
</svg>
