<?xml version="1.0" encoding="utf-8"?>
<!-- Generator: Adobe Illustrator 26.5.0, SVG Export Plug-In . SVG Version: 6.00 Build 0)  -->
<svg version="1.1" id="Layer_1" xmlns="http://www.w3.org/2000/svg" xmlns:xlink="http://www.w3.org/1999/xlink" x="0px" y="0px"
	 viewBox="0 0 100 100" style="enable-background:new 0 0 100 100;" xml:space="preserve">
<style type="text/css">
	.st0{fill:#657687;}
</style>
<path id="XMLID_00000162330377441264068670000013935305521644356025_" class="st0" d="M72.4,41.4c-0.7-0.3-1.5-0.3-2.4,0.1
	c0.2-0.8,0.3-1.8,0.5-2.7c0.6-3.4,1-7.3,1-10.6c0-0.3,0-0.5,0-0.7c0-0.1,0-0.3,0-0.4C70.8,17.3,61.4,9.6,50,9.6s-20.8,7.7-21.5,17.4
	c0,0.1,0,0.3,0,0.4c0,0.3,0,0.5,0,0.7c0,3.3,0.5,7.2,1.1,10.6c0.2,1,0.3,1.9,0.5,2.7c-0.8-0.3-1.6-0.4-2.4-0.1
	c-2.2,1-2.6,4.9-0.9,8.8c1.3,3,3.4,5.1,5.4,5.5c0.6,3.1,1.4,5.8,1.9,7.4c0.3,1.1,0.9,2.1,1.7,3l1.2,1.3v10.5c0,1.5,0.3,3.1,0.8,4.5
	C41.5,92.4,50,100,50,100s8.2-7.3,12.2-17.2c0.6-1.6,1-3.3,1-5V67.3l1.2-1.2c0.8-0.8,1.4-1.9,1.7-3c0.5-1.7,1.3-4.4,1.9-7.4
	c1.9-0.4,4.1-2.5,5.4-5.4C75,46.3,74.6,42.4,72.4,41.4z M59.9,71c-0.5,0.5-1.1,1.3-1.9,2.3c-0.4,0.5-0.8,1-1.3,1.5
	c-0.5,0.5-1.1,1-1.9,1.4c-0.7,0.4-1.6,0.5-2.4,0.6c-0.8,0.1-1.6,0.2-2.5,0.2c-0.8,0-1.6-0.1-2.5-0.2c-0.8-0.1-1.6-0.2-2.4-0.6
	c-0.7-0.3-1.4-0.8-1.9-1.3c-0.5-0.5-0.9-1-1.3-1.5c-0.8-0.9-1.4-1.7-1.9-2.3c-0.4-0.6-0.7-0.9-0.7-0.9s0.3,0.3,0.8,0.7
	c0.5,0.5,1.3,1.2,2.1,2c0.4,0.4,0.9,0.9,1.4,1.4c0.5,0.4,1.1,0.8,1.7,1.1c0.6,0.3,1.3,0.4,2.2,0.4c0.8,0.1,1.6,0.1,2.4,0.1
	c0.8,0,1.6,0,2.4-0.1c0.8-0.1,1.5-0.2,2.2-0.4c0.6-0.3,1.2-0.6,1.7-1.1c0.5-0.5,1-1,1.4-1.4c0.8-0.9,1.6-1.5,2.1-2
	c0.5-0.5,0.8-0.7,0.8-0.7S60.3,70.4,59.9,71z M66.6,35.4c-0.2-0.3-0.3-0.6-0.4-0.9c-0.1-0.3-0.1-0.6-0.2-1c-0.1-0.6-0.2-1.3-0.3-2
	c-0.1-0.4-0.1-0.6-0.3-0.8c-0.2-0.2-0.5-0.3-0.7-0.3c-0.1,0-0.3,0.1-0.5,0.1l-0.6,0.1c-0.4,0.1-0.7,0.1-1.1,0.2
	c-0.8,0.1-1.6,0.2-2.4,0.3c-3.2,0.4-6.7,0.5-10.1,0.5c-3.4,0-6.9-0.2-10.1-0.5c-0.8-0.1-1.6-0.2-2.4-0.3c-0.4-0.1-0.8-0.1-1.1-0.2
	c-0.4-0.1-0.8-0.2-1.1-0.2c-0.3,0-0.6,0.1-0.7,0.3c-0.2,0.2-0.3,0.4-0.3,0.8c-0.1,0.7-0.3,1.3-0.3,2c-0.1,0.3-0.1,0.6-0.2,1
	c-0.1,0.3-0.2,0.6-0.4,0.9c-0.4,0.5-0.8,0.8-1.2,1.2c-0.3,0.4-0.5,0.8-0.6,1.3c-0.1,0.4-0.1,0.8-0.1,1.2c-0.1,1.5-0.1,2.4-0.1,2.4
	s0-0.9-0.1-2.4c0-0.4-0.1-0.8,0-1.3c0.1-0.5,0.3-1,0.6-1.4c0.3-0.5,0.8-0.8,1.1-1.3c0.2-0.2,0.3-0.5,0.3-0.8
	c0.1-0.3,0.1-0.6,0.2-0.9c0.1-0.6,0.2-1.3,0.3-2c0-0.3,0.1-0.8,0.4-1.1c0.3-0.3,0.7-0.5,1.2-0.5c0.7,0.1,1.5,0.2,2.3,0.3
	c0.7,0.1,1.5,0.2,2.3,0.3c3.2,0.3,6.6,0.4,10,0.4c3.4,0,6.9-0.1,10-0.4c1.6-0.2,3.1-0.4,4.6-0.6c0.5,0,0.9,0.2,1.2,0.5
	c0.3,0.3,0.4,0.8,0.4,1.1c0.1,0.7,0.2,1.4,0.3,2c0.1,0.3,0.1,0.6,0.1,0.9c0.1,0.3,0.2,0.5,0.3,0.8c0.3,0.4,0.7,0.8,1.1,1.2
	c0.3,0.5,0.5,1,0.6,1.4c0.1,0.5,0,0.9,0,1.3c-0.1,1.5-0.1,2.4-0.1,2.4s0-0.9-0.1-2.4c0-0.4,0-0.8-0.1-1.2c-0.1-0.4-0.3-0.9-0.6-1.3
	C67.5,36.2,67,36,66.6,35.4z"/>
</svg>
