<?xml version="1.0" encoding="utf-8"?>
<!-- Generator: Adobe Illustrator 26.4.1, SVG Export Plug-In . SVG Version: 6.00 Build 0)  -->
<svg version="1.1" id="Слой_1" xmlns="http://www.w3.org/2000/svg" xmlns:xlink="http://www.w3.org/1999/xlink" x="0px" y="0px"
	 viewBox="0 0 284.7 335.4" style="enable-background:new 0 0 284.7 335.4;" xml:space="preserve">
<style type="text/css">
	.st0{fill:#707070;}
</style>
<g>
	<path class="st0" d="M284.8,313.8l-22-208.9c-1.1-10-9.5-17.5-19.5-17.5h-41.4V59c0-32.5-26.5-59-59-59s-59,26.5-59,59v28.4H41.6
		c-10.1,0-18.4,7.5-19.5,17.5l-22,208.9c-0.6,5.5,1.2,11,4.9,15.1c3.7,4.1,9,6.5,14.5,6.5h245.7c5.5,0,10.8-2.4,14.7-6.5
		C283.6,324.8,285.4,319.3,284.8,313.8z M93.9,59c0-27,22-49,49-49s49,22,49,49v28.4h-98V59z M272.3,322.2c-1.8,2-4.4,3.2-7.1,3.2
		H19.5c-2.7,0-5.3-1.2-7.1-3.2c-1.8-2.1-2.7-4.7-2.4-7.4l22-208.9c0.5-4.8,4.6-8.5,9.5-8.5h201.7c4.9,0,9,3.6,9.5,8.5l22,208.9
		C275,317.5,274.1,320.2,272.3,322.2z"/>
	<path class="st0" d="M142.9,174.7c-27,0-49-22-49-49h-10c0,32.5,26.5,59,59,59s59-26.5,59-59h-10
		C191.9,152.7,169.9,174.7,142.9,174.7z"/>
</g>
</svg>
