<?xml version="1.0" encoding="utf-8"?>
<!-- Generator: Adobe Illustrator 26.5.0, SVG Export Plug-In . SVG Version: 6.00 Build 0)  -->
<svg version="1.1" id="Слой_1" xmlns="http://www.w3.org/2000/svg" xmlns:xlink="http://www.w3.org/1999/xlink" x="0px" y="0px"
	 viewBox="0 0 25 25" style="enable-background:new 0 0 25 25;" xml:space="preserve">
<style type="text/css">
	.st0{fill:#707070;}
</style>
<g>
	<path class="st0" d="M23.1,22.9L21.6,8c-0.1-0.9-0.9-1.6-1.8-1.6h-2.6V4.7c0-2.5-2.1-4.6-4.6-4.6S8,2.2,8,4.7v1.7H5.4
		C4.5,6.4,3.7,7.1,3.6,8L2.1,22.9c-0.1,0.5,0.1,1,0.4,1.4c0.3,0.4,0.8,0.6,1.3,0.6h17.5c0.5,0,1-0.2,1.3-0.6
		C23,23.9,23.2,23.4,23.1,22.9z M12.6,1.6c1.7,0,3.1,1.4,3.1,3.1v1.7H9.5V4.7C9.5,3,10.9,1.6,12.6,1.6z M5.1,8.1
		c0-0.2,0.1-0.3,0.3-0.3h14.4c0.2,0,0.3,0.1,0.3,0.3L21.7,23c0,0.1,0,0.2-0.1,0.2c-0.1,0.1-0.1,0.1-0.2,0.1H3.8
		c-0.1,0-0.2,0-0.2-0.1c0-0.1-0.1-0.1-0.1-0.2L5.1,8.1z"/>
	<path class="st0" d="M12.6,14.1c2.2,0,4.1-1.6,4.5-3.7c0.1-0.4-0.3-0.9-0.7-0.9h0c-0.3,0-0.6,0.2-0.7,0.6c-0.3,1.4-1.5,2.5-3.1,2.5
		c-1.5,0-2.8-1.1-3.1-2.5C9.5,9.7,9.2,9.5,8.9,9.5h0c-0.5,0-0.8,0.4-0.7,0.9C8.5,12.5,10.4,14.1,12.6,14.1z"/>
</g>
</svg>
