<?xml version="1.0" encoding="utf-8"?>
<!-- Generator: Adobe Illustrator 26.4.1, SVG Export Plug-In . SVG Version: 6.00 Build 0)  -->
<svg version="1.1" id="Слой_1" xmlns="http://www.w3.org/2000/svg" xmlns:xlink="http://www.w3.org/1999/xlink" x="0px" y="0px"
	 viewBox="0 0 512 512" style="enable-background:new 0 0 512 512;" xml:space="preserve">
<style type="text/css">
	.st0{fill:none;stroke:#707070;stroke-width:10;stroke-miterlimit:10;}
</style>
<g>
	<path class="st0" d="M378.8,418.7H133.2c-8.6,0-15.4-7.5-14.5-16.1l22-208.9c0.8-7.4,7-13,14.5-13h201.7c7.4,0,13.7,5.6,14.5,13
		l22,208.9C394.2,411.2,387.5,418.7,378.8,418.7z"/>
	<path class="st0" d="M310.5,180.7v-33.4c0-29.8-24.2-54-54-54h0c-29.8,0-54,24.2-54,54v33.4"/>
	<path class="st0" d="M310.5,214.1c0,29.8-24.2,54-54,54h0c-29.8,0-54-24.2-54-54"/>
</g>
</svg>
