<?xml version="1.0" encoding="utf-8"?>
<!-- Generator: Adobe Illustrator 25.4.1, SVG Export Plug-In . SVG Version: 6.00 Build 0)  -->
<svg version="1.1" id="Слой_1" xmlns="http://www.w3.org/2000/svg" xmlns:xlink="http://www.w3.org/1999/xlink" x="0px" y="0px"
	 viewBox="0 0 512 512" style="enable-background:new 0 0 512 512;" xml:space="preserve">
<style type="text/css">
	.st0{fill:none;stroke:#000000;stroke-width:3;stroke-miterlimit:10;}
	.st1{fill:none;stroke:#000000;stroke-width:3;stroke-linecap:round;stroke-miterlimit:10;}
</style>
<g>
	<path class="st0" d="M334.2,136.5c-1.6-16.3-5.1-32-10.1-47c-1.7-5-6.8-8.1-12-7.3c-59.2,9.4-110.1,43.7-141.8,91.7c0,0,0,0,0,0
		c-11.1,16.9-19.9,35.5-25.8,55.3c0,0,0,0,0,0.1v0c-0.6,2.9-1.1,5.9-1.5,9c-0.8,6-1.3,12.1-1.3,18.3c0,31.6,11,60.6,29.3,83.5
		c3,3.7,15.2,14.6,17.8,16.8c3.4,2.8,6.7,5.8,9.7,9.1h0c6.9,7.5,12.8,16,17.2,25.4c0,0,0,0,0,0c1.8,3.1,3.1,6.4,4,9.9
		c0,0,0,0.1,0,0.1c0.9,3.3,1.3,6.7,1.3,10.2c0,4.8-0.8,9.3-2.3,13.5c-1.3,3.8,3.6,6.6,6.1,3.5c0.1-0.1,0.1-0.2,0.2-0.2
		c7.7-9.5,12.3-21.5,12.3-34.6v-0.1c0-6.8-1-13.7-2.9-20.2c-3.1-10.6-6.8-20.3-11.4-30.8c-1.1-2.4-2.2-4.9-3.3-7.2c0,0,0,0,0,0
		s0,0,0,0c-1.6-2.7-3-5.7-4.3-8.6c0,0,0,0,0,0c-4.1-9.8-6.2-20.6-6-31.9c0.9-40.9,33.8-74.4,74.7-76.1c10.2-0.4,20,1.1,29.1,4.3
		c5.8,2,12.1-1.4,13.8-7.3c5.4-18.6,8.4-38.4,8.4-58.7C335.1,150.1,334.8,143.2,334.2,136.5z M212.7,337.8c5,7.1,4.7,15.9-0.7,19.7
		c-5.4,3.8-13.8,1-18.7-6.1c-5-7.1-4.7-15.9,0.7-19.7C199.3,327.9,207.7,330.7,212.7,337.8z"/>
	<g>
		<path class="st1" d="M346.4,215.7c5.4-18.6,8.4-38.4,8.4-58.7c0-6.9-0.4-13.7-1-20.5c-1.6-16.3-5.1-32-10.1-47"/>
	</g>
	<g>
		<path class="st1" d="M365.7,201.6c3.1-14.4,4.8-29.3,4.8-44.6c0-6.9-0.4-13.7-1-20.5c-1.2-11.7-3.3-23.2-6.3-34.3"/>
	</g>
</g>
</svg>
