<?xml version="1.0" encoding="utf-8"?>
<!-- Generator: Adobe Illustrator 26.5.0, SVG Export Plug-In . SVG Version: 6.00 Build 0)  -->
<svg version="1.1" id="Layer_1" xmlns="http://www.w3.org/2000/svg" xmlns:xlink="http://www.w3.org/1999/xlink" x="0px" y="0px"
	 viewBox="0 0 25 25" style="enable-background:new 0 0 25 25;" xml:space="preserve">
<path d="M21.2,15.4v-4.6c0-3.5-2.5-6.5-5.9-7.5C15,1.9,13.9,0.9,12.5,1C11.1,0.9,10,1.9,9.7,3.2c-3.4,1.1-5.8,4-5.8,7.5v4.6
	c-1.8,1.1-2.9,3-2.9,5.1c0,0.5,0.4,0.9,1,0.9h6.9c0.5,1.6,1.9,2.7,3.7,2.7c1.7,0.1,3.2-1.1,3.7-2.7H23c0.5,0,0.9-0.4,1-0.9
	C24,18.4,22.9,16.5,21.2,15.4z M13.6,21.9c-0.9,0.6-2.2,0.4-2.8-0.5h3.3C14,21.6,13.8,21.7,13.6,21.9z M15.4,19.6H9.6H3
	c0.3-1.3,1.1-2.3,2.3-2.9c0.3-0.1,0.5-0.4,0.5-0.8v-5.1c0.1-3.6,3.1-6.3,6.7-6.2c3.6-0.1,6.6,2.6,6.7,6.2v5.1c0,0.3,0.2,0.6,0.5,0.8
	c1.2,0.6,2,1.7,2.3,2.9H15.4z"/>
</svg>
