<?xml version="1.0" encoding="utf-8"?>
<!-- Generator: Adobe Illustrator 25.4.1, SVG Export Plug-In . SVG Version: 6.00 Build 0)  -->
<svg version="1.1" id="Слой_1" xmlns="http://www.w3.org/2000/svg" xmlns:xlink="http://www.w3.org/1999/xlink" x="0px" y="0px"
	 viewBox="0 0 512 512" style="enable-background:new 0 0 512 512;" xml:space="preserve">
<style type="text/css">
	.st0{fill:none;stroke:#000000;stroke-width:3;stroke-miterlimit:10;}
	.st1{stroke:#000000;stroke-width:3;stroke-miterlimit:10;}
</style>
<path class="st0" d="M166.1,102.6h180.3c2.6,0,4.6,2.1,4.6,4.6v29.6c0,2.6-2.1,4.6-4.6,4.6H166.1c-2.6,0-4.6-2.1-4.6-4.6v-29.6
	C161.4,104.7,163.5,102.6,166.1,102.6z"/>
<path class="st0" d="M372,315.2l-54.5,31.7c-1.9,1.1-4.2,1.1-6.1,0l-55.2-32.1L201,346.9c-0.9,0.5-2,0.8-3,0.8s-2.1-0.3-3-0.8
	l-54.5-31.7l-29,16.9c6.7,18.7,17.8,35.3,33.5,49.6c17.5,16,38.3,25.1,62.1,27.3c0.6,0.1,1.3,0.2,1.9,0.4c0.3,0.1,0.6,0.1,0.9,0.1
	h92.6c0.2,0,0.4,0,0.6,0c5.4-0.9,10.9-1.4,16.2-2.7c33.2-7.9,57.2-28,73.4-57.6c3.1-5.7,5.8-11.5,8-17.4L372,315.2z"/>
<path class="st0" d="M137.4,240.7c1.9-1.1,4.2-1.1,6.1,0l54.5,31.7l55.2-32.1c1.9-1.1,4.2-1.1,6.1,0l55.2,32.1l54.5-31.7
	c1.9-1.1,4.2-1.1,6.1,0l28.6,16.6c-5.3-18.7-15.5-35-30.4-48.8c-11.6-10.7-23.3-21.3-34.8-31.9c0,0,0,0,0,0c-0.7-0.6-1-1.6-1-2.5
	v-14.2c0-2-1.6-3.6-3.6-3.6H178.2c-2,0-3.6,1.6-3.6,3.6V174c0,0.9-0.3,1.8-1,2.4c-0.1,0.1-0.3,0.2-0.4,0.4
	c-11.4,10.5-22.8,20.8-34.2,31.4c-15.6,14.5-25.9,31.1-31.1,49.6L137.4,240.7z"/>
<path class="st0" d="M407.2,275.9c-0.1-0.9-0.2-1.8-0.4-2.6L372,252.9l-54.5,31.7c-0.9,0.5-2,0.8-3,0.8c-1.1,0-2.1-0.3-3.1-0.8
	l-55.2-32.1L201,284.6c-1.9,1.1-4.2,1.1-6.1,0l-54.5-31.7l-35.6,20.7c-1,8.2-1.1,16.7-0.4,25.5c0.6,7.2,1.7,14.2,3.4,21l29.6-17.2
	c1.9-1.1,4.2-1.1,6.1,0l54.5,31.7l55.2-32.1c1.9-1.1,4.2-1.1,6.1,0l55.2,32.1l54.5-31.7c1.9-1.1,4.2-1.1,6.1,0l29.2,17
	C407.9,305.7,408.9,291,407.2,275.9z M140.5,288.5c-5.5,0-10-4.5-10-10c0-5.5,4.5-10,10-10c5.5,0,10,4.5,10,10
	C150.5,284,146,288.5,140.5,288.5z M198,317.2c-5.5,0-10-4.5-10-10c0-5.5,4.5-10,10-10c5.5,0,10,4.5,10,10
	C208,312.7,203.5,317.2,198,317.2z M256.4,288.5c-5.5,0-10-4.5-10-10c0-5.5,4.5-10,10-10c5.5,0,10,4.5,10,10
	C266.4,284,261.9,288.5,256.4,288.5z M314.4,317.2c-5.5,0-10-4.5-10-10c0-5.5,4.5-10,10-10c5.5,0,10,4.5,10,10
	C324.4,312.7,320,317.2,314.4,317.2z M372,288.5c-5.5,0-10-4.5-10-10c0-5.5,4.5-10,10-10c5.5,0,10,4.5,10,10
	C382,284,377.5,288.5,372,288.5z"/>
<path class="st1" d="M382,278.5c0,5.5-4.5,10-10,10c-5.5,0-10-4.5-10-10c0-5.5,4.5-10,10-10C377.5,268.5,382,273,382,278.5z"/>
<path class="st1" d="M324.4,307.2c0,5.5-4.5,10-10,10c-5.5,0-10-4.5-10-10c0-5.5,4.5-10,10-10C320,297.2,324.4,301.6,324.4,307.2z"
	/>
<path class="st1" d="M266.4,278.5c0,5.5-4.5,10-10,10c-5.5,0-10-4.5-10-10c0-5.5,4.5-10,10-10C261.9,268.5,266.4,273,266.4,278.5z"
	/>
<circle class="st1" cx="198" cy="307.2" r="10"/>
<path class="st1" d="M150.5,278.5c0,5.5-4.5,10-10,10c-5.5,0-10-4.5-10-10c0-5.5,4.5-10,10-10C146,268.5,150.5,273,150.5,278.5z"/>
</svg>
