<?xml version="1.0" encoding="utf-8"?>
<!-- Generator: Adobe Illustrator 26.5.0, SVG Export Plug-In . SVG Version: 6.00 Build 0)  -->
<svg version="1.1" id="Layer_1" xmlns="http://www.w3.org/2000/svg" xmlns:xlink="http://www.w3.org/1999/xlink" x="0px" y="0px"
	 viewBox="0 0 25 25" style="enable-background:new 0 0 25 25;" xml:space="preserve">
<g id="_7853767_kashifarif_user_profile_person_account_icon" transform="translate(0.05 0.05)">
	<g id="Ellipse_24">
		<path d="M12.4,25C5.6,25-0.1,19.3-0.1,12.4c0-6.9,5.6-12.5,12.5-12.5C19.3-0.1,25,5.6,25,12.4C25,19.3,19.3,25,12.4,25z M12.4,1.4
			c-6.1,0-11.1,5-11.1,11.1c0,6.1,5,11.1,11.1,11.1c6.1,0,11.1-5,11.1-11.1C23.5,6.3,18.6,1.4,12.4,1.4z"/>
	</g>
	<g id="Path_472">
		<path d="M12.3,24.8c-3.3,0-6.4-1.3-8.7-3.7c-0.2-0.2-0.3-0.5-0.1-0.8c1.7-3.4,5.2-5.6,9-5.6c0,0,0,0,0,0c3.8,0,7.3,2.2,9,5.6
			c0.1,0.3,0.1,0.6-0.1,0.8c-2.4,2.3-5.5,3.6-8.8,3.6C12.4,24.8,12.4,24.8,12.3,24.8z M5,20.6c2,1.9,4.7,2.9,7.5,2.9
			c2.8,0,5.4-1,7.5-2.9c-1.5-2.7-4.4-4.3-7.5-4.4C9.4,16.2,6.5,17.9,5,20.6z"/>
	</g>
	<g id="Ellipse_25">
		<path d="M12.4,13.5C10,13.5,8,11.5,8,9s2-4.5,4.5-4.5s4.5,2,4.5,4.5S14.9,13.5,12.4,13.5z M12.4,6c-1.7,0-3,1.4-3,3s1.4,3,3,3
			s3-1.4,3-3S14.1,6,12.4,6z"/>
	</g>
</g>
</svg>
