<?xml version="1.0" encoding="utf-8"?>
<!-- Generator: Adobe Illustrator 26.4.1, SVG Export Plug-In . SVG Version: 6.00 Build 0)  -->
<svg version="1.1" id="Layer_1" xmlns="http://www.w3.org/2000/svg" xmlns:xlink="http://www.w3.org/1999/xlink" x="0px" y="0px"
	 viewBox="0 0 24 24" style="enable-background:new 0 0 24 24;" xml:space="preserve">
<style type="text/css">
	.st0{fill:#717171;}
</style>
<g id="Слой_1_00000122720990964194892110000005306221707552793769_">
	<g>
		<g>
			<path class="st0" d="M19.8,17.9c-0.3,0-0.5-0.2-0.5-0.5v-2.1c0-2.6-2.2-4.8-4.8-4.8H4.2c-0.3,0-0.5-0.2-0.5-0.5
				c0-0.3,0.2-0.5,0.5-0.5h10.4c3.2,0,5.8,2.6,5.8,5.8v2.1C20.3,17.7,20.1,17.9,19.8,17.9z"/>
		</g>
		<g>
			<path class="st0" d="M7.9,14.1c-0.1,0-0.2,0-0.3-0.1l-3.7-3.5c-0.1-0.1-0.2-0.2-0.2-0.4c0-0.1,0.1-0.3,0.2-0.4l3.7-3.5
				C7.7,6,8.1,6,8.2,6.2c0.2,0.2,0.2,0.5,0,0.7l-3.3,3.1l3.3,3.1c0.2,0.2,0.2,0.5,0,0.7C8.1,14,8,14.1,7.9,14.1z"/>
		</g>
	</g>
</g>
</svg>
