<?xml version="1.0" encoding="utf-8"?>
<!-- Generator: Adobe Illustrator 26.5.0, SVG Export Plug-In . SVG Version: 6.00 Build 0)  -->
<svg version="1.1" id="Layer_1" xmlns="http://www.w3.org/2000/svg" xmlns:xlink="http://www.w3.org/1999/xlink" x="0px" y="0px"
	 viewBox="0 0 16 15" style="enable-background:new 0 0 16 15;" xml:space="preserve">
<style type="text/css">
	.st0{fill:#0077FF;}
</style>
<path class="st0" d="M8,5H2.3l2.5-2.5c0.3-0.3,0.3-0.7,0-1s-0.7-0.3-1,0L0.2,5.2C0.1,5.2,0.1,5.3,0.1,5.4C0,5.6,0,5.8,0.1,5.9
	c0,0.1,0.1,0.2,0.1,0.2l3.7,3.7C4,9.9,4.2,10,4.3,10c0.2,0,0.4-0.1,0.5-0.2c0.3-0.3,0.3-0.7,0-1L2.3,6.4H8c3.7,0,6.6,3,6.6,6.6
	c0,0.4,0.3,0.7,0.7,0.7S16,13.4,16,13C16,8.6,12.4,5,8,5z"/>
</svg>
