<?xml version="1.0" encoding="utf-8"?>
<!-- Generator: Adobe Illustrator 26.4.1, SVG Export Plug-In . SVG Version: 6.00 Build 0)  -->
<svg version="1.1" id="Layer_1" xmlns="http://www.w3.org/2000/svg" xmlns:xlink="http://www.w3.org/1999/xlink" x="0px" y="0px"
	 viewBox="0 0 24 24" style="enable-background:new 0 0 24 24;" xml:space="preserve">
<style type="text/css">
	.st0{fill:#717171;}
</style>
<g>
	<g id="Слой_1_00000096036106486592578160000015063819667208278697_">
		<g>
			<g>
				<path class="st0" d="M10.4,8.4c-0.1,0-0.2,0-0.3-0.1c-0.2-0.2-0.2-0.5,0-0.7l3.5-3.7c0.2-0.2,0.5-0.2,0.7,0l3.5,3.7
					c0.2,0.2,0.2,0.5,0,0.7c-0.2,0.2-0.5,0.2-0.7,0l-3.1-3.3l-3.1,3.3C10.7,8.3,10.6,8.4,10.4,8.4z"/>
			</g>
		</g>
	</g>
	<g>
		<path class="st0" d="M10.3,20.3c-2.3,0-4.2-1.9-4.2-4.2v-5.4c0-0.3,0.2-0.5,0.5-0.5c0.3,0,0.5,0.2,0.5,0.5v5.4
			c0,1.8,1.4,3.2,3.2,3.2c1.8,0,3.2-1.4,3.2-3.2v-12c0-0.3,0.2-0.5,0.5-0.5s0.5,0.2,0.5,0.5v12C14.4,18.4,12.6,20.3,10.3,20.3z"/>
	</g>
</g>
</svg>
