<?xml version="1.0" encoding="utf-8"?>
<!-- Generator: Adobe Illustrator 26.4.1, SVG Export Plug-In . SVG Version: 6.00 Build 0)  -->
<svg version="1.1" id="Слой_1" xmlns="http://www.w3.org/2000/svg" xmlns:xlink="http://www.w3.org/1999/xlink" x="0px" y="0px"
	 viewBox="0 0 375.3 290.5" style="enable-background:new 0 0 375.3 290.5;" xml:space="preserve">
<style type="text/css">
	.st0{fill:#707070;}
</style>
<g>
	<g>
		<path class="st0" d="M187.7,179c-17.1,0-34.2-6.5-47.2-19.5c-26-26-26-68.3,0-94.3c12.6-12.6,29.3-19.5,47.2-19.5
			s34.6,6.9,47.2,19.5c26,26,26,68.3,0,94.3C221.8,172.5,204.7,179,187.7,179z M187.7,55.6c-15.1,0-29.4,5.9-40.1,16.6l0,0
			c-22.1,22.1-22.1,58.1,0,80.2c11.1,11.1,25.6,16.6,40.1,16.6s29-5.5,40.1-16.6c22.1-22.1,22.1-58.1,0-80.2
			C217,61.5,202.8,55.6,187.7,55.6z M144,68.7L144,68.7L144,68.7z"/>
	</g>
	<g>
		<path class="st0" d="M279,133.3c-4.3,0-8.3-0.4-12.1-1.1c-2.7-0.5-4.5-3.2-4-5.9c0.5-2.7,3.2-4.5,5.9-4c3.1,0.6,6.5,0.9,10.1,0.9
			c31.3,0,56.7-25.4,56.7-56.7c0-31.2-25.4-56.6-56.7-56.6c-21.6,0-41.1,12-50.7,31.4c-1.2,2.5-4.2,3.5-6.7,2.2
			c-2.5-1.2-3.5-4.2-2.2-6.7C230.7,14.2,253.5,0,279,0c36.8,0,66.7,29.9,66.7,66.6C345.7,103.4,315.8,133.3,279,133.3z"/>
	</g>
	<g>
		<path class="st0" d="M370.4,244.8h-81.3c-2.8,0-5-2.2-5-5s2.2-5,5-5h76.2c-2.6-45.3-40.2-81.3-86.2-81.3c-6.3,0-12.2,0.6-18.2,2
			c-2.7,0.6-5.4-1.1-6-3.8s1.1-5.4,3.8-6c6.6-1.5,13.5-2.2,20.4-2.2c53.1,0,96.3,43.2,96.3,96.3
			C375.4,242.6,373.2,244.8,370.4,244.8z"/>
	</g>
	<g>
		<path class="st0" d="M96.4,133.4c-36.8,0-66.7-29.9-66.7-66.7C29.7,29.9,59.6,0,96.3,0c25.5,0,48.4,14.2,59.8,37
			c1.2,2.5,0.2,5.5-2.2,6.7c-2.5,1.2-5.5,0.2-6.7-2.2C137.5,22,118,10,96.3,10c-31.2,0-56.6,25.4-56.6,56.7s25.4,56.7,56.7,56.7
			c3.2,0,6.5-0.3,10.3-0.9c2.7-0.5,5.3,1.4,5.8,4.1s-1.4,5.3-4.1,5.8C104,133.1,100.1,133.4,96.4,133.4z"/>
	</g>
	<g>
		<path class="st0" d="M86.3,244.8H5c-2.8,0-5-2.2-5-5c0-53,43.2-96.3,96.3-96.4c6.6,0,13.3,0.7,20.3,2.2c2.7,0.6,4.4,3.2,3.9,5.9
			c-0.6,2.7-3.2,4.4-5.9,3.9c-6.4-1.3-12.4-2-18.3-2c-45.9,0.1-83.6,36.2-86.2,81.4h76.2c2.8,0,5,2.2,5,5S89.1,244.8,86.3,244.8z"/>
	</g>
	<g>
		<path class="st0" d="M279,290.5H96.3c-2.8,0-5-2.2-5-5c0-1.5,0-3,0.1-4.6c0-0.2,0-0.4,0.1-0.6v-0.1c0-0.1,0-0.3,0-0.4l0.3-4
			c0-0.3,0.1-0.5,0.1-0.8c0.1-1.2,0.2-2.5,0.4-3.7c0-0.2,0-0.3,0.1-0.4c0-0.4,0.1-0.7,0.2-1.1c0.1-0.5,0.2-1,0.3-1.5
			c0.1-0.5,0.2-1,0.3-1.6c0-0.2,0.1-0.5,0.2-0.7s0.1-0.4,0.2-0.9c0.1-1.1,0.4-2,0.6-2.9c0-0.1,0.1-0.2,0.1-0.4
			c0.1-0.2,0.1-0.4,0.1-0.5c0.1-0.3,0.2-0.6,0.2-0.9c0.1-0.7,0.3-1.4,0.6-2.1c0.3-1.1,0.6-2.2,1-3.4c0.1-0.3,0.2-0.6,0.3-0.8
			l0.1-0.1c0,0,0,0,0-0.1c0.2-0.8,0.5-1.6,0.8-2.4c0.1-0.2,0.1-0.3,0.2-0.5c0-0.1,0.1-0.2,0.1-0.2c0.7-1.7,1.4-3.5,2.1-5.1
			c0.1-0.3,0.2-0.5,0.4-0.7c3.1-6.8,7-13.2,11.6-19c2.8-3.6,5.9-7,9.2-10.1c16.1-15.3,37-24.7,59.1-26.4c0.1,0,0.3,0,0.4,0
			c0.1,0,0.2,0,0.2,0c0.6-0.1,1.1-0.1,1.6-0.1c0.4,0,0.7-0.1,1.1-0.1c1.4-0.1,2.8-0.1,4.1-0.1s2.7,0,4.1,0.1c0.4,0,0.7,0,1.1,0.1
			c0.5,0,1.1,0,1.6,0.1c0.1,0,0.2,0,0.3,0s0.2,0,0.3,0c22.1,1.6,43.1,11,59.1,26.4c3.3,3.2,6.3,6.5,9.2,10.1
			c2.9,3.6,5.4,7.3,7.7,11.2c1.8,2.9,3.3,6,4.2,8c0,0,0,0.1,0.1,0.1c0.1,0.1,0.1,0.2,0.1,0.3c0.7,1.4,1.5,3.4,2.3,5.5l0,0
			c0.1,0.2,0.2,0.5,0.2,0.8c0.2,0.5,0.4,1.2,0.6,1.7c0.1,0.2,0.1,0.3,0.1,0.5l0.1,0.1c0.1,0.3,0.2,0.6,0.4,1.1
			c0.1,0.5,0.3,0.9,0.4,1.4c0.2,0.6,0.4,1.2,0.6,1.9c0,0.2,0.1,0.3,0.1,0.5s0.1,0.6,0.3,1.1c0.1,0.4,0.3,0.8,0.4,1.3
			c0,0.2,0.1,0.4,0.1,0.5c0.1,0.3,0.2,0.6,0.2,1c0.1,0.5,0.2,1,0.3,1.6c0.2,0.8,0.4,1.4,0.5,2.2c0.2,1,0.4,2,0.6,3v0.2
			c0.1,0.3,0.1,0.7,0.2,1c0,0.1,0,0.2,0,0.3c0,0.2,0.1,0.4,0.1,0.6c0,0.5,0.1,1,0.2,1.5s0.1,0.9,0.2,1.4s0.2,0.9,0.2,1.3l0.3,3.5
			c0.1,0.7,0.1,1.2,0.1,1.6c0.1,1.5,0.1,3,0.1,4.4C284,288.3,281.8,290.5,279,290.5z M101.5,280.5h172.3l-0.3-3.6
			c-0.1-0.2-0.1-0.5-0.1-0.7c0-0.5-0.1-1-0.2-1.5c-0.1-0.6-0.1-1.1-0.2-1.7c0-0.3-0.1-0.5-0.1-0.8c0-0.1,0-0.2,0-0.3l-0.1-0.3
			c-0.2-1-0.4-2-0.5-2.9c0-0.1,0-0.1,0-0.2c-0.1-0.5-0.1-0.7-0.2-0.9c0-0.1-0.1-0.2-0.1-0.4c-0.2-0.8-0.4-1.6-0.5-2.5
			c-0.1-0.3-0.1-0.5-0.2-0.8c0-0.2-0.1-0.4-0.1-0.5c-0.3-0.9-0.5-1.6-0.6-2.4c-0.1-0.4-0.3-0.8-0.4-1.3c-0.2-0.6-0.4-1.2-0.6-1.9
			l0,0l-0.1-0.1c-0.1-0.2-0.2-0.5-0.3-0.8c-0.3-0.7-0.6-1.5-0.8-2.3c-0.1-0.1-0.1-0.3-0.2-0.5c-0.4-1.2-0.9-2.4-1.7-4
			c-0.2-0.3-0.3-0.6-0.4-0.8c-0.9-1.8-2.2-4.6-3.7-7l-0.1-0.1c-2-3.5-4.3-6.8-6.9-10.1c-2.5-3.2-5.3-6.3-8.3-9.1
			c-14.3-13.7-33-22.1-52.8-23.6c-0.3,0-0.7,0-1-0.1c-0.1,0-0.2,0-0.3,0l0,0c-0.4,0-0.8,0-1.3-0.1c-0.2,0-0.5,0-0.8,0
			c-1.1-0.1-2.3-0.1-3.5-0.1s-2.4,0-3.5,0.1c-0.3,0-0.5,0-0.8,0c-0.4,0-0.8,0.1-1.3,0.1c-0.1,0-0.2,0-0.2,0c-0.3,0-0.7,0.1-1,0.1
			c-19.7,1.6-38.5,10-52.8,23.6c-2.9,2.8-5.7,5.9-8.2,9.1c-4.2,5.3-7.8,11.2-10.6,17.4c-0.1,0.2-0.2,0.4-0.3,0.6
			c-0.6,1.4-1.2,2.8-1.8,4.2c0,0.1-0.1,0.3-0.1,0.4v0.1c-0.3,0.7-0.5,1.4-0.7,1.9c-0.1,0.4-0.2,0.8-0.3,1l-0.1,0.1
			c0,0.1-0.1,0.3-0.1,0.4c-0.3,0.9-0.6,1.9-0.9,2.9c0,0.1-0.1,0.2-0.1,0.3c-0.2,0.5-0.3,0.9-0.3,1.1c0,0.3-0.1,0.5-0.2,0.8
			c-0.1,0.2-0.1,0.4-0.1,0.5c-0.1,0.4-0.2,0.7-0.3,1.1c-0.2,0.6-0.3,1.2-0.3,1.6c0,0.1,0,0.1,0,0.2c-0.1,0.7-0.2,1.4-0.5,2.1
			c-0.1,0.5-0.2,0.9-0.3,1.3c-0.1,0.5-0.2,1-0.3,1.6c0,0.2,0,0.3,0,0.4c0,0.4-0.1,0.7-0.2,1.1c-0.1,0.7-0.2,1.7-0.3,2.8
			c0,0.4,0,0.8-0.2,1.2l-0.2,3.2C101.5,280.4,101.5,280.5,101.5,280.5z M273.9,277.9L273.9,277.9L273.9,277.9z M92.3,274L92.3,274
			L92.3,274z M266.2,249.5L266.2,249.5L266.2,249.5z M274.4,244.2C274.4,244.2,274.5,244.2,274.4,244.2
			C274.5,244.2,274.4,244.2,274.4,244.2z M274.4,244.2L274.4,244.2L274.4,244.2z"/>
	</g>
</g>
</svg>
