<?xml version="1.0" encoding="utf-8"?>
<!-- Generator: Adobe Illustrator 26.5.0, SVG Export Plug-In . SVG Version: 6.00 Build 0)  -->
<svg version="1.1" id="Слой_1" xmlns="http://www.w3.org/2000/svg" xmlns:xlink="http://www.w3.org/1999/xlink" x="0px" y="0px"
	 viewBox="0 0 28.3 25" style="enable-background:new 0 0 28.3 25;" xml:space="preserve">
<style type="text/css">
	.st0{fill:#0077FF;}
</style>
<path d="M-401.9-47.5"/>
<path class="st0" d="M9.7,9.8V8.2c0-0.8-0.7-1.5-1.5-1.5H3.5C2.7,6.7,2,7.4,2,8.2v1.6c0,0.6,0.4,1.1,0.9,1.4c0.1,0.5,0,1.3-0.8,2.3
	C0.7,15.5,0,17.2,0,18.7c0,2.5,1.6,5,3.9,5.9c0.7,0.3,1.8,0.4,1.9,0.4c0.1,0,1.2-0.1,1.9-0.4c0.6-0.2,1.1-0.6,1.6-1
	c-0.2-0.2-0.4-0.3-0.6-0.5c-0.2-0.2-0.4-0.4-0.5-0.5C8,22.8,7.6,23,7.2,23.2c-0.5,0.2-1.4,0.3-1.4,0.3c0,0,0,0,0,0
	c0,0-0.9-0.1-1.4-0.3c-1.7-0.7-2.9-2.7-2.9-4.5c0-1.3,0.7-2.7,1.8-4.3c1.7-2.3,1.1-4,0.6-4.6c-0.1,0-0.2,0-0.4,0V8.2h4.7v1.6
	c-0.1,0-0.2,0-0.4,0c-0.4,0.5-1,1.9,0.1,3.8c0.1-0.2,0.3-0.5,0.5-0.8c0.2-0.3,0.3-0.5,0.5-0.8c-0.1-0.4-0.1-0.7-0.1-0.9
	C9.3,11,9.7,10.5,9.7,9.8z"/>
<path class="st0" d="M26.2,13.6c-0.8-1.1-0.9-1.9-0.8-2.3c0.5-0.2,0.9-0.8,0.9-1.4V8.2c0-0.8-0.7-1.5-1.5-1.5h-4.7
	c-0.8,0-1.5,0.7-1.5,1.5v1.6c0,0.6,0.4,1.1,0.9,1.4c0,0.2,0,0.5-0.1,0.9c0.2,0.3,0.4,0.5,0.5,0.8c0.2,0.3,0.3,0.5,0.5,0.8
	c1-1.9,0.5-3.3,0.1-3.8c-0.1,0-0.2,0-0.4,0V8.2h4.7v1.6c-0.1,0-0.2,0-0.4,0c-0.5,0.6-1.1,2.3,0.6,4.6c1.1,1.6,1.8,3,1.8,4.3
	c0,1.8-1.2,3.8-2.9,4.5c-0.5,0.2-1.4,0.3-1.4,0.3c0,0,0,0,0,0c0,0-0.9-0.1-1.4-0.3c-0.4-0.2-0.7-0.4-1.1-0.6
	c-0.2,0.2-0.3,0.4-0.5,0.5c-0.2,0.2-0.4,0.4-0.6,0.5c0.5,0.4,1,0.8,1.6,1c0.7,0.3,1.8,0.4,1.9,0.4c0.1,0,1.2-0.1,1.9-0.4
	c2.3-0.9,3.9-3.3,3.9-5.9C28.3,17.2,27.6,15.5,26.2,13.6z"/>
<g>
	<path class="st0" d="M19.4,13.7c-0.1-0.2-0.3-0.5-0.5-0.8c-0.2-0.3-0.3-0.5-0.5-0.8c0-0.1-0.1-0.1-0.1-0.2
		c-0.8-1.1-1.1-1.5-1.4-2.5c-0.3-1.1-0.3-2.2-0.2-2.8c0-0.7,0.1-1.4,0.3-2.1c0.5-0.3,0.8-0.7,0.8-1.3V1.6c0-0.8-0.7-1.5-1.5-1.5H12
		c-0.8,0-1.5,0.7-1.5,1.5v1.7c0,0.6,0.3,1.1,0.8,1.3c0.2,0.7,0.3,1.4,0.3,2.1c0,0.6,0.1,1.6-0.2,2.8c-0.3,1-0.5,1.4-1.4,2.5
		c-0.1,0.1-0.1,0.1-0.1,0.2c-0.2,0.3-0.4,0.5-0.5,0.8c-0.2,0.3-0.3,0.5-0.5,0.8c-0.9,1.5-1.3,2.9-1.3,4.2c0,1.7,0.7,3.4,1.7,4.7
		c0.2,0.2,0.3,0.4,0.5,0.5c0.2,0.2,0.4,0.4,0.6,0.5c0.5,0.4,1,0.7,1.6,0.9c0.8,0.3,2.1,0.4,2.2,0.4c0,0,0.1,0,0.1,0v0
		c0.7,0,1.4-0.2,2.1-0.4c0.6-0.2,1.1-0.5,1.6-0.9c0.2-0.2,0.4-0.3,0.6-0.5c0.2-0.2,0.4-0.4,0.5-0.5c1.1-1.3,1.7-3,1.7-4.7
		C20.7,16.6,20.3,15.2,19.4,13.7z M18,21.4c-0.2,0.2-0.3,0.4-0.5,0.6c-0.2,0.2-0.4,0.3-0.6,0.5c-0.3,0.3-0.7,0.5-1.1,0.7
		c-0.6,0.2-1.2,0.3-1.6,0.3c0,0,0,0,0,0c0,0,0,0,0,0c0,0,0,0,0,0c0,0-1-0.1-1.6-0.3c-0.4-0.2-0.8-0.4-1.1-0.7
		c-0.2-0.2-0.4-0.3-0.6-0.5c-0.2-0.2-0.3-0.4-0.5-0.6c-0.8-1-1.3-2.3-1.2-3.5c0-0.9,0.3-1.8,0.7-2.8c0.1-0.2,0.2-0.5,0.4-0.8
		c0.1-0.2,0.3-0.5,0.4-0.7c0.2-0.3,0.4-0.5,0.6-0.8c0.9-1.2,1.2-1.8,1.6-3c0.4-1.4,0.3-2.5,0.3-3.3c-0.1-1.3-0.4-2.4-0.7-3.3
		c-0.1,0-0.3,0-0.4,0V1.6h4.3v1.7c-0.1,0-0.3,0-0.4,0c-0.3,0.9-0.6,2-0.7,3.3c0,0.7-0.1,1.9,0.3,3.3c0.4,1.2,0.7,1.7,1.6,3
		c0.2,0.3,0.4,0.5,0.6,0.8c0.2,0.2,0.3,0.5,0.4,0.7c0.1,0.3,0.3,0.5,0.4,0.8c0.5,1,0.7,1.9,0.7,2.8C19.2,19.1,18.7,20.4,18,21.4z"/>
	<path class="st0" d="M11.8,13.9c-0.2,0.3-0.3,0.5-0.5,0.8c-0.2,0.3-0.3,0.5-0.4,0.7c-0.2,0.3-0.3,0.6-0.4,0.9
		c-0.2,0.6-0.4,1.2-0.4,1.7c0,0.8,0.2,1.7,0.7,2.5c0.1,0.3,0.3,0.5,0.5,0.7c0,0,0,0,0,0c0.1,0.2,0.4,0.3,0.6,0.3c0,0,0.1,0,0.1,0
		c0.1,0,0.3-0.1,0.4-0.2c0.3-0.3,0.4-0.7,0.1-1.1c0,0,0,0,0,0c-0.2-0.3-0.4-0.6-0.6-1c-0.2-0.4-0.3-0.8-0.2-1.2c0-0.2,0-0.4,0.1-0.6
		c0.1-0.3,0.2-0.7,0.4-1.1c0.2-0.5,0.5-0.9,0.9-1.5c0.2-0.3,0.2-0.8-0.2-1C12.5,13.5,12,13.6,11.8,13.9z"/>
</g>
</svg>
