<?xml version="1.0" encoding="utf-8"?>
<!-- Generator: Adobe Illustrator 26.4.1, SVG Export Plug-In . SVG Version: 6.00 Build 0)  -->
<svg version="1.1" id="Слой_1" xmlns="http://www.w3.org/2000/svg" xmlns:xlink="http://www.w3.org/1999/xlink" x="0px" y="0px"
	 viewBox="0 0 512 512" style="enable-background:new 0 0 512 512;" xml:space="preserve">
<style type="text/css">
	.st0{fill:none;stroke:#707070;stroke-width:10;stroke-linecap:round;stroke-linejoin:round;stroke-miterlimit:10;}
</style>
<g>
	
		<ellipse transform="matrix(0.7071 -0.7071 0.7071 0.7071 -88.8403 257.6025)" class="st0" cx="266.5" cy="236" rx="61.7" ry="61.7"/>
	<path class="st0" d="M346.7,251c3.6,0.7,7.3,1,11.1,1c34.1,0,61.7-27.6,61.7-61.7s-27.6-61.7-61.7-61.7
		c-24.2,0-45.1,13.9-55.2,34.2"/>
	<path class="st0" d="M368,363.5h81.3c0-50.4-40.9-91.3-91.3-91.3c-6.6,0-13,0.7-19.3,2.1"/>
	<path class="st0" d="M230.4,162.9c-10.1-20.3-31-34.2-55.2-34.2c-34.1,0-61.7,27.6-61.7,61.7s27.6,61.7,61.7,61.7
		c3.8,0,7.5-0.4,11.1-1"/>
	<path class="st0" d="M194.5,274.2c-6.2-1.3-12.6-2.1-19.3-2.1c-50.4,0-91.3,40.9-91.3,91.3h81.3"/>
	<path class="st0" d="M357.7,403.9c-0.1-1.3-0.2-2.7-0.3-4c0-0.2,0-0.3-0.1-0.5c-0.1-1.2-0.3-2.3-0.4-3.5c-0.1-0.5-0.1-0.9-0.2-1.4
		c-0.2-1.1-0.4-2.2-0.6-3.2c-0.1-0.6-0.2-1.1-0.4-1.7c-0.2-0.8-0.4-1.6-0.5-2.4c-0.2-0.6-0.3-1.2-0.5-1.8c-0.2-0.6-0.4-1.3-0.5-1.9
		c-0.3-1.1-0.7-2.2-1-3.3c-0.1-0.4-0.3-0.8-0.4-1.2c-0.3-0.8-0.6-1.6-0.8-2.3c0-0.1-0.1-0.2-0.1-0.3c-0.6-1.7-1.3-3.3-2.1-5
		c-0.1-0.1-0.1-0.2-0.2-0.4c-1.2-2.6-2.5-5.2-4-7.6c0,0,0,0,0,0c0,0,0,0,0,0c-2.2-3.8-4.6-7.3-7.3-10.7c0,0,0,0,0,0
		c-2.7-3.4-5.6-6.6-8.7-9.6c0,0,0,0,0,0c-14.8-14.2-34.3-23.4-56-25c-0.5,0-1-0.1-1.5-0.1c-0.6,0-1.1-0.1-1.7-0.1
		c-1.3-0.1-2.6-0.1-3.9-0.1s-2.6,0-3.9,0.1c-0.6,0-1.1,0.1-1.7,0.1c-0.5,0-1,0.1-1.5,0.1c-21.7,1.7-41.2,10.9-56,25c0,0,0,0,0,0
		c-3.1,3-6,6.2-8.7,9.6c0,0,0,0,0,0c-4.4,5.6-8.2,11.8-11.2,18.4c-0.1,0.1-0.1,0.2-0.2,0.3c-0.7,1.6-1.4,3.3-2.1,5
		c0,0.1-0.1,0.2-0.1,0.3c-0.3,0.8-0.6,1.6-0.8,2.3c-0.1,0.4-0.3,0.8-0.4,1.2c-0.4,1.1-0.7,2.2-1,3.3c-0.2,0.6-0.4,1.3-0.5,1.9
		c-0.2,0.6-0.3,1.2-0.5,1.8c-0.2,0.8-0.4,1.6-0.5,2.4c-0.1,0.6-0.2,1.1-0.4,1.7c-0.2,1.1-0.4,2.1-0.6,3.2c-0.1,0.5-0.1,0.9-0.2,1.4
		c-0.2,1.1-0.3,2.3-0.4,3.5c0,0.2,0,0.3-0.1,0.5c-0.1,1.3-0.2,2.7-0.3,4c0,0.4,0,0.7-0.1,1.1c-0.1,1.4-0.1,2.8-0.1,4.2h182.7
		c0-1.4,0-2.8-0.1-4.2C357.7,404.6,357.7,404.3,357.7,403.9z"/>
</g>
</svg>
