<?xml version="1.0" encoding="utf-8"?>
<!-- Generator: Adobe Illustrator 26.5.0, SVG Export Plug-In . SVG Version: 6.00 Build 0)  -->
<svg version="1.1" id="Слой_1" xmlns="http://www.w3.org/2000/svg" xmlns:xlink="http://www.w3.org/1999/xlink" x="0px" y="0px"
	 viewBox="0 0 29 25" style="enable-background:new 0 0 29 25;" xml:space="preserve">
<style type="text/css">
	.st0{fill:#0077FF;}
</style>
<g id="_79-users" transform="translate(-0.25 -3.122)">
	<g id="Ellipse_254">
		<path class="st0" d="M14.5,18.4c-2.9,0-5.2-2.4-5.2-5.2s2.4-5.2,5.2-5.2s5.2,2.4,5.2,5.2S17.4,18.4,14.5,18.4z M14.5,9.4
			c-2.1,0-3.8,1.7-3.8,3.8s1.7,3.8,3.8,3.8s3.7-1.7,3.7-3.8S16.6,9.4,14.5,9.4z"/>
	</g>
	<g id="Path_538">
		<path class="st0" d="M21.2,27.4H8.3c-0.4,0-0.7-0.3-0.8-0.7v-0.2c0-3.9,3.3-7.1,7.2-7.1c0,0,0.1,0,0.1,0c1.9,0,3.7,0.8,5,2.2
			c1.3,1.4,2.1,3.2,2,5.1C21.9,27,21.6,27.4,21.2,27.4z M9.1,25.9h11.3c-0.3-2.8-2.7-5-5.6-5C11.9,20.9,9.5,23,9.1,25.9z"/>
	</g>
	<g id="Path_539">
		<path class="st0" d="M22.1,14.5c-0.4,0-0.8-0.3-0.8-0.8c0-0.4,0.3-0.8,0.8-0.8c2.1,0,3.8-1.7,3.8-3.8c0-2.1-1.7-3.8-3.8-3.8h0
			c-1.2,0-2.3,0.6-3.1,1.5c-0.2,0.3-0.7,0.4-1,0.1c-0.3-0.2-0.4-0.7-0.1-1c1-1.3,2.6-2.1,4.3-2.1h0c2.9,0,5.3,2.4,5.3,5.3
			C27.4,12.1,25,14.5,22.1,14.5z"/>
	</g>
	<g id="Path_540">
		<path class="st0" d="M28.5,23.7H23c-0.4,0-0.8-0.3-0.8-0.8s0.3-0.8,0.8-0.8h4.7c-0.4-2.8-2.7-4.9-5.6-4.9c-0.4,0-0.8-0.3-0.8-0.8
			s0.3-0.8,0.8-0.8c4,0,7.2,3.2,7.2,7.2C29.2,23.4,28.9,23.7,28.5,23.7z"/>
	</g>
	<g id="Path_541">
		<path class="st0" d="M7.4,14.5C7.4,14.5,7.4,14.5,7.4,14.5c-1.7,0-3.3-0.8-4.3-2.1c-0.9-1.1-1.2-2.5-1-4C2.3,7,3.1,5.8,4.2,4.9
			C6.6,3.2,9.9,3.7,11.7,6c0.2,0.3,0.2,0.8-0.1,1.1c-0.3,0.2-0.8,0.2-1.1-0.1c-1.3-1.7-3.7-2-5.4-0.8C4.3,6.8,3.8,7.6,3.6,8.7
			c-0.1,1,0.1,2,0.7,2.8c0.7,1,1.9,1.5,3.1,1.5c0.4,0,0.7,0.3,0.7,0.8C8.2,14.2,7.8,14.5,7.4,14.5z"/>
	</g>
	<g id="Path_542">
		<path class="st0" d="M6.5,23.7H1c-0.4,0-0.8-0.3-0.8-0.8c0-4,3.2-7.2,7.2-7.2c0.4,0,0.8,0.3,0.8,0.8s-0.3,0.8-0.8,0.8
			c-2.9,0-5.2,2.1-5.6,4.9h4.7c0.4,0,0.8,0.3,0.8,0.8S6.9,23.7,6.5,23.7z"/>
	</g>
</g>
</svg>
