<?xml version="1.0" encoding="utf-8"?>
<!-- Generator: Adobe Illustrator 26.5.0, SVG Export Plug-In . SVG Version: 6.00 Build 0)  -->
<svg version="1.1" id="Слой_1" xmlns="http://www.w3.org/2000/svg" xmlns:xlink="http://www.w3.org/1999/xlink" x="0px" y="0px"
	 viewBox="0 0 24 24" style="enable-background:new 0 0 24 24;" xml:space="preserve">
<path d="M23.8,22.6l-8.4-8.5c1.3-1.5,2-3.5,2-5.5c0-2.3-0.9-4.5-2.5-6.1C13.1,0.9,11,0,8.6,0C6.3,0,4.2,0.9,2.5,2.5
	C0.9,4.2,0,6.3,0,8.6c0,2.3,0.9,4.5,2.5,6.1c1.6,1.6,3.8,2.5,6.1,2.5c2,0,4-0.7,5.5-2l8.5,8.4c0.2,0.2,0.4,0.2,0.6,0.2
	c0.2,0,0.4-0.1,0.6-0.2c0.2-0.2,0.2-0.4,0.2-0.6C24,23,23.9,22.7,23.8,22.6z M8.6,15.6c-3.9,0-7-3.1-7-7c0-3.9,3.1-7,7-7
	c3.9,0,7,3.1,7,7C15.6,12.5,12.5,15.6,8.6,15.6z"/>
</svg>
