<?xml version="1.0" encoding="utf-8"?>
<!-- Generator: Adobe Illustrator 26.4.1, SVG Export Plug-In . SVG Version: 6.00 Build 0)  -->
<svg version="1.1" id="Слой_1" xmlns="http://www.w3.org/2000/svg" xmlns:xlink="http://www.w3.org/1999/xlink" x="0px" y="0px"
	 viewBox="0 0 334.5 334.5" style="enable-background:new 0 0 334.5 334.5;" xml:space="preserve">
<style type="text/css">
	.st0{fill:#707070;}
	.st1{fill:none;stroke:#707070;stroke-width:10;stroke-linecap:round;stroke-linejoin:round;stroke-miterlimit:10;}
</style>
<g>
	<g>
		<path class="st0" d="M118.5,10C178.4,10,227,58.6,227,118.5c0,59.9-48.6,108.5-108.5,108.5S10,178.4,10,118.5
			C10,58.6,58.6,10,118.5,10 M118.5,0C86.8,0,57.1,12.3,34.7,34.7C12.3,57.1,0,86.8,0,118.5c0,31.6,12.3,61.4,34.7,83.8
			S86.8,237,118.5,237s61.4-12.3,83.8-34.7s34.7-52.1,34.7-83.8c0-31.6-12.3-61.4-34.7-83.8C179.9,12.3,150.1,0,118.5,0L118.5,0z"/>
	</g>
	<line class="st1" x1="200.5" y1="200.5" x2="329.5" y2="329.5"/>
</g>
</svg>
