<?xml version="1.0" encoding="utf-8"?>
<!-- Generator: Adobe Illustrator 26.4.1, SVG Export Plug-In . SVG Version: 6.00 Build 0)  -->
<svg version="1.1" id="Слой_1" xmlns="http://www.w3.org/2000/svg" xmlns:xlink="http://www.w3.org/1999/xlink" x="0px" y="0px"
	 viewBox="0 0 512 512" style="enable-background:new 0 0 512 512;" xml:space="preserve">
<style type="text/css">
	.st0{fill:#707070;}
	.st1{fill:none;stroke:#707070;stroke-width:10;stroke-linecap:round;stroke-linejoin:round;stroke-miterlimit:10;}
</style>
<g>
	<g>
		<path class="st0" d="M204.7,96.2c59.9,0,108.5,48.6,108.5,108.5c0,59.9-48.6,108.5-108.5,108.5S96.2,264.6,96.2,204.7
			C96.2,144.8,144.8,96.2,204.7,96.2 M204.7,86.2c-31.6,0-61.4,12.3-83.8,34.7c-22.4,22.4-34.7,52.1-34.7,83.8
			c0,31.6,12.3,61.4,34.7,83.8c22.4,22.4,52.1,34.7,83.8,34.7s61.4-12.3,83.8-34.7c22.4-22.4,34.7-52.1,34.7-83.8
			c0-31.6-12.3-61.4-34.7-83.8C266.1,98.6,236.4,86.2,204.7,86.2L204.7,86.2z"/>
	</g>
	<line class="st1" x1="286.7" y1="286.7" x2="415.8" y2="415.8"/>
</g>
</svg>
