<?xml version="1.0" encoding="utf-8"?>
<!-- Generator: Adobe Illustrator 26.5.0, SVG Export Plug-In . SVG Version: 6.00 Build 0)  -->
<svg version="1.1" id="Layer_1" xmlns="http://www.w3.org/2000/svg" xmlns:xlink="http://www.w3.org/1999/xlink" x="0px" y="0px"
	 viewBox="0 0 30 30" style="enable-background:new 0 0 30 30;" xml:space="preserve">
<style type="text/css">
	.st0{fill:#101820;}
</style>
<g id="Layer_45" transform="translate(21.257 -1.351) rotate(45)">
	<path id="Path_544" class="st0" d="M6.5,35.1c-0.8,0-1.5-0.4-1.8-1.1l-4-7.6c-0.2-0.5,0-1.1,0.5-1.3c0.5-0.2,1.1-0.1,1.3,0.4l4,7.6
		L16,7.2l-26,9.4l9.8,5.3l8.3-8.3c0.4-0.4,1-0.4,1.4,0c0.4,0.4,0.4,1,0,1.4l-8.8,8.8c-0.3,0.3-0.8,0.4-1.2,0.2l-10.4-5.5
		c-1-0.5-1.4-1.7-1-2.7c0.2-0.5,0.7-0.9,1.2-1.1l25.9-9.5c1-0.4,2.2,0,2.6,1.1c0.2,0.5,0.2,1.1,0,1.6L8.4,33.8
		c-0.3,0.8-1,1.3-1.8,1.3H6.5z"/>
</g>
</svg>
