<?xml version="1.0" encoding="utf-8"?>
<!-- Generator: Adobe Illustrator 26.5.0, SVG Export Plug-In . SVG Version: 6.00 Build 0)  -->
<svg version="1.1" id="Layer_1" xmlns="http://www.w3.org/2000/svg" xmlns:xlink="http://www.w3.org/1999/xlink" x="0px" y="0px"
	 viewBox="0 0 25 25" style="enable-background:new 0 0 25 25;" xml:space="preserve">
<g>
	<path d="M22.2,10.1h-1.1c-0.3,0-0.6-0.1-0.8-0.3c-0.4-0.4-0.4-1.1,0-1.6l0.8-0.8c0,0,0,0,0,0c0.3-0.3,0.3-0.8,0-1.1L18.8,4
		c0,0,0,0,0,0c-0.3-0.3-0.8-0.3-1.1,0l-0.8,0.8C16.6,5,16.3,5.1,16,5.1c-0.6,0-1.1-0.5-1.1-1.1V2.8c0-0.4-0.4-0.8-0.8-0.8h-3.2
		c-0.4,0-0.8,0.4-0.8,0.8v1.1c0,0.3-0.1,0.6-0.3,0.8c-0.4,0.4-1.1,0.4-1.6,0L7.4,3.9c0,0,0,0,0,0C7,3.6,6.5,3.6,6.2,3.9L4,6.2
		c0,0,0,0,0,0C3.6,6.5,3.6,7,4,7.4l0.8,0.8C5,8.4,5.1,8.7,5.1,9c0,0.6-0.5,1.1-1.1,1.1H2.8c-0.4,0-0.8,0.4-0.8,0.8v3.2
		c0,0.4,0.4,0.8,0.8,0.8h1.1c0.3,0,0.6,0.1,0.8,0.3c0.4,0.4,0.4,1.1,0,1.6l-0.8,0.8c0,0,0,0,0,0c-0.3,0.3-0.3,0.8,0,1.1L6.2,21
		c0,0,0,0,0,0c0.3,0.3,0.8,0.3,1.1,0l0.8-0.8C8.4,20,8.7,19.9,9,19.9c0.6,0,1.1,0.5,1.1,1.1v1.2c0,0.4,0.4,0.8,0.8,0.8h3.2
		c0.4,0,0.8-0.4,0.8-0.8v-1.1c0-0.3,0.1-0.6,0.3-0.8c0.4-0.4,1.1-0.4,1.6,0l0.8,0.8c0,0,0,0,0,0c0.3,0.3,0.8,0.3,1.1,0l2.3-2.3
		c0,0,0,0,0,0c0.3-0.3,0.3-0.8,0-1.1l-0.8-0.8c-0.2-0.2-0.3-0.5-0.3-0.8c0-0.6,0.5-1.1,1.1-1.1h1.2c0.4,0,0.8-0.4,0.8-0.8v-3.2
		C23,10.5,22.7,10.1,22.2,10.1z M21.4,13.3H21c-0.7,0-1.4,0.3-1.9,0.8c-1.1,1.1-1.1,2.8,0,3.9l0.3,0.3l-1.1,1.1L18,19.1
		c-0.5-0.5-1.2-0.8-1.9-0.8c-1.5,0-2.7,1.2-2.7,2.7v0.4h-1.6l0-0.4c0-0.7-0.3-1.4-0.8-1.9C9.8,18,8.1,18,7,19.1l-0.3,0.3l-1.1-1.1
		L5.9,18c0.5-0.5,0.8-1.2,0.8-1.9c0-1.5-1.2-2.7-2.7-2.7H3.6v-1.6H4c0.7,0,1.4-0.3,1.9-0.8C7,9.8,7,8.1,5.9,7L5.6,6.8l1.1-1.1L7,5.9
		C7.5,6.4,8.2,6.7,9,6.7c1.5,0,2.7-1.2,2.7-2.7V3.6h1.6V4c0,0.7,0.3,1.4,0.8,1.9C15.2,7,16.9,7,18,5.9l0.3-0.3l1.1,1.1L19.1,7
		c-0.5,0.5-0.8,1.2-0.8,1.9c0,1.5,1.2,2.7,2.7,2.7h0.4V13.3z"/>
	<path d="M12.5,7.5c-2.8,0-5,2.2-5,5s2.2,5,5,5s5-2.2,5-5S15.3,7.5,12.5,7.5z M12.5,15.5c-1.7,0-3-1.3-3-3s1.3-3,3-3s3,1.3,3,3
		S14.2,15.5,12.5,15.5z"/>
</g>
</svg>
