<?xml version="1.0" encoding="utf-8"?>
<!-- Generator: Adobe Illustrator 26.5.0, SVG Export Plug-In . SVG Version: 6.00 Build 0)  -->
<svg version="1.1" id="Layer_1" xmlns="http://www.w3.org/2000/svg" xmlns:xlink="http://www.w3.org/1999/xlink" x="0px" y="0px"
	 viewBox="0 0 55 46.3" style="enable-background:new 0 0 55 46.3;" xml:space="preserve">
<style type="text/css">
	.st0{fill:#0077FF;}
</style>
<g id="Background">
</g>
<g>
	<circle class="st0" cx="11.4" cy="5.3" r="4.5"/>
	<path class="st0" d="M15,12.2l-0.1,0.1l-4.7,4.2l0.1,0c0.2,0.1,0.3,0.1,0.5,0.3l4.1-3.6l0.4-0.4l1.5-1.3c0,0,0.1,0,0.1,0
		c0.1,0,0.1,0,0.2,0c0,0,0,0,0.1,0c0.1,0,0.1,0,0.2,0c0.1,0,0.1-0.1,0.2-0.1c0,0,0.1,0,0.1-0.1c0.1-0.1,0.1-0.2,0.2-0.3
		c0.1-0.3,0.1-0.7-0.1-0.9c0,0-0.1-0.1-0.1-0.1c-0.1-0.1-0.3-0.2-0.5-0.2c0,0-0.1,0-0.1,0c-0.1,0-0.3,0.1-0.4,0.2
		c-0.3,0.2-0.3,0.6-0.2,0.9L15,12.2z"/>
	<path class="st0" d="M1.8,16.9C1.8,16.9,1.8,16.9,1.8,16.9C1.9,17,2,17,2.1,17.1l7.1,2.5c0.2,0.1,0.3,0.1,0.5,0.1
		c0.1,0,0.1,0,0.2,0c0,0,0,0,0.1,0c0,0,0.1,0,0.1,0c0,0,0.1,0,0.1,0c0,0,0.1,0,0.1,0c0,0,0.1,0,0.1,0c0,0,0.1,0,0.1-0.1
		c0,0,0,0,0.1-0.1c0,0,0.1-0.1,0.1-0.1c0,0,0,0,0.1-0.1c0,0,0.1-0.1,0.1-0.1s0-0.1,0.1-0.1c0,0,0-0.1,0.1-0.1c0,0,0-0.1,0-0.1
		c0,0,0,0,0-0.1c0,0,0,0,0,0c0,0,0,0,0,0c0-0.1,0-0.1,0-0.2c0,0,0,0,0-0.1c0,0,0-0.1,0-0.1c0-0.6-0.4-1.2-0.9-1.4l-0.1,0h0L4.8,15
		l1.1-1.7c0.1-0.1,0.2-0.2,0.3-0.1c0.3,0,0.1,0.3,0.1,0.3l-0.9,1.4l4.2,1.5c0,0,4.9-4.3,4.9-4.3l-0.1-0.1l-0.5-0.5
		c-0.2-0.2-0.4-0.3-0.6-0.3l0,0l-0.2,0L6.3,9.4C6.1,9.4,6,9.3,5.8,9.3c0,0-0.1,0-0.1,0c-0.1,0-0.1,0-0.2,0c-0.1,0-0.1,0-0.2,0
		c-0.1,0-0.1,0-0.2,0.1c0,0-0.1,0-0.1,0C5.1,9.6,5,9.6,4.9,9.7c0,0,0,0-0.1,0.1C4.8,9.8,4.7,9.9,4.7,10c0,0,0,0,0,0l-2.7,4.1
		l-0.5,0.8c-0.1,0.2-0.2,0.5-0.2,0.7c0,0.2,0,0.3,0.1,0.5C1.3,16.4,1.5,16.7,1.8,16.9z"/>
	<path class="st0" d="M16.5,18c0.3,0.3,0.6,0.4,1,0.4c0.2,0,0.4,0,0.6-0.1l4.7-2.3l-0.6,1.2c-0.1,0.1,0,0.3,0.1,0.4c0,0,0.1,0,0.1,0
		c0.1,0,0.2-0.1,0.3-0.2l0.9-1.9l1.4-0.7c0.7-0.3,1-1.2,0.7-1.9c-0.1-0.3-0.3-0.5-0.6-0.6l1.1-2.5c0.3,0,0.7-0.2,0.8-0.5
		c0.2-0.5-0.1-1.1-0.6-1.2c-0.3-0.1-0.6,0.1-0.8,0.3c-0.3,0.4-0.2,0.8,0.1,1.1l-1.2,2.5c-0.3,0-0.5,0-0.8,0.1l-6.1,3L15.6,13L11,17
		c0.1,0.1,0.1,0.2,0.2,0.3c0.4,0.7,0.4,1.5-0.1,2.1c-0.2,0.3-0.5,0.5-0.8,0.6c-0.4,0.2-0.9,0.2-1.3,0l-5.9-2.1l-1.6,4.6l0,0.1
		c-0.2,0.5-0.2,1.1,0.1,1.7l3.7,8.1c0.1,0.1,0.1,0.3,0,0.5l-4,9.1c-0.5,1.2,0,2.5,1.2,3C2.7,45,3,45.1,3.3,45.1
		c0.9,0,1.7-0.5,2.1-1.3l4.7-10.5c0.2-0.4,0.2-0.9,0-1.3l-1.9-4.3l4.6,5.2c0.1,0.1,0.1,0.2,0.1,0.4l0.3,10c0,1.2,1,2.2,2.3,2.2h0.1
		c1.3,0,2.2-1.1,2.2-2.3l-0.3-11.3c0-0.4-0.1-0.7-0.4-1l-5.6-6.3l2.3-9.3L16.5,18z"/>
	<path class="st0" d="M30,43.9h-8.8c-0.2,0-0.4,0.2-0.4,0.4v0.9c0,0.1,0.1,0.3,0.3,0.3l9,0c0.1,0,0.3-0.1,0.3-0.3v-0.9
		C30.3,44.1,30.1,43.9,30,43.9z"/>
	<polygon class="st0" points="23.7,31.2 25.1,23.7 22.3,23.7 	"/>
	<polygon class="st0" points="27.3,31.2 28.7,23.7 25.9,23.7 	"/>
	<path class="st0" d="M30.6,29.6c0.2-0.5,0.4-1.1,0.4-1.8l0.3-4h-1.8L30.6,29.6z"/>
	<path class="st0" d="M24.1,32.7c0.4,0.1,0.9,0.2,1.4,0.2s0.9-0.1,1.4-0.2l-1.4-7.4L24.1,32.7z"/>
	<path class="st0" d="M30.1,30.5l-1-5.2l-1.3,7.1C28.7,32,29.5,31.3,30.1,30.5z"/>
	<path class="st0" d="M19.7,23.7l0.3,4c0,0.6,0.2,1.2,0.4,1.8l1.1-5.8H19.7z"/>
	<path class="st0" d="M21,30.5c0.6,0.9,1.4,1.5,2.3,1.9l-1.3-7.1L21,30.5z"/>
	<path class="st0" d="M23.1,33.6l-1.3,9.3h7.3l-1.3-9.3c-0.7,0.4-1.5,0.5-2.4,0.5C24.7,34.2,23.9,34,23.1,33.6z"/>
	<path class="st0" d="M30,21h-9C19.9,21,19,21.9,19,23h13.1C32.1,21.9,31.2,21,30,21z"/>
	<path class="st0" d="M41.3,10.9c2.3,0,4.1-1.9,4.1-4.1c0-0.8-0.2-1.5-0.6-2.1c0.1,0.1,0.3,0.1,0.5,0.1c0.8,0,1.4-1,3,0.6
		c0-2.6-2.2-3.3-3-3.3c-0.8,0-1.4,0.6-1.4,1.4c0,0.1,0,0.2,0,0.3c-0.7-0.6-1.6-1-2.7-1c-2.3,0-4.1,1.9-4.1,4.1
		C37.1,9.1,39,10.9,41.3,10.9z"/>
	<path class="st0" d="M48.2,16.5l3.2,7.1c0.2,0.5,0.7,0.8,1.2,0.8c0.2,0,0.4,0,0.6-0.1c0.7-0.3,1-1.1,0.7-1.8L50.5,15
		c-0.1-0.3-0.3-0.5-0.6-0.6l-5-2.6c-0.2-0.1-0.4-0.1-0.6-0.1h-5.5L31,8l-2.1-6.2c-0.2-0.7-1-1.1-1.7-0.8c-0.7,0.2-1.1,1-0.8,1.7
		l2.3,6.8c0.1,0.3,0.4,0.6,0.7,0.8l7.4,3.4l0.9,6.7L34,31.2c0,0,1.1,0.4,2.6,0.8l-0.7,2.8c-0.1,0.4-0.1,0.8,0,1.1l2.5,8
		c0.3,0.9,1.1,1.5,2,1.5c0.2,0,0.4,0,0.6-0.1c1.1-0.3,1.7-1.5,1.4-2.6L40,35.2l0.6-2.5c0.2,0,0.4,0,0.5,0L41,35.1
		c-0.1,0.7,0.2,1.3,0.7,1.8c0.4,0.3,0.9,0.5,1.4,0.5c0.1,0,0.3,0,0.4,0l8.3-1.9c1.1-0.3,1.8-1.4,1.6-2.5c-0.3-1.1-1.4-1.8-2.5-1.6
		l-5.5,1.2l0.1-0.6c1.3-0.3,2.2-0.6,2.2-0.6l-3.8-11.2l1-5.5L48.2,16.5z"/>
</g>
<g>
</g>
<g>
</g>
<g>
</g>
<g>
</g>
<g>
</g>
<g>
</g>
</svg>
