<?xml version="1.0" encoding="utf-8"?>
<!-- Generator: Adobe Illustrator 26.4.1, SVG Export Plug-In . SVG Version: 6.00 Build 0)  -->
<svg version="1.1" id="Layer_1" xmlns="http://www.w3.org/2000/svg" xmlns:xlink="http://www.w3.org/1999/xlink" x="0px" y="0px"
	 viewBox="0 0 512 512" style="enable-background:new 0 0 512 512;" xml:space="preserve">
<style type="text/css">
	.st0{fill:none;stroke:#707070;stroke-width:2;stroke-miterlimit:10;}
</style>
<g id="Background">
</g>
<g>
	<g>
		<path class="st0" d="M329.5,316.3c-6.1,3.8-11.7,7.2-17.3,10.7c0.1,0.2,0.2,0.4,0.3,0.6c6.9-3,13.8-6,20.9-9.1
			c4.6,5.4,7.3,11.5,7.9,18.4c0.1,0.7-1.2,1.9-2,2.3c-10.2,5.5-20.5,10.9-30.8,16.4c-0.8,0.4-1.5,0.9-2.1,1.7
			c11.5-4.3,23-8.6,35-13.1c-0.8,4.5-3.2,7.4-6.8,9.1c-9.7,4.7-19.3,9.4-29.1,13.8c-45.3,20.2-90.7,40.3-136.1,60.5
			c-0.7,0.3-1.4,0.6-2.3,0.9c0.2-2.9,0.2-5.6,0.6-8.3c0.1-0.8,1.2-1.6,2.1-2.1c8.1-4.1,16.2-8.1,24.3-12.2c1-0.5,2.1-1.1,2.9-2.1
			c-10.1,3.4-20.1,6.8-30.4,10.3c-0.7-1.8-1.2-3.4-2-5.4c5.4-2.2,10.6-4.3,15.9-6.4c0-0.1-0.1-0.3-0.1-0.4
			c-5.1,1.2-10.2,2.3-15.3,3.7c-2.3,0.7-3.6,0.2-4.9-1.7c-1.3-1.8-2.8-3.5-4.5-5.1c3,6.4,4.7,13.1,5.1,20.1c0.2,2.6,0.1,5.3-0.4,7.9
			c-0.7,4-3.4,5.8-7.4,4.9c-16.8-4.2-23.1-22.4-17.4-34c2.2-4.6,5.9-7.5,10.5-9.5c45.3-20.2,90.7-40.4,136-60.6
			c10.4-4.6,20.8-9.3,31.3-14C319.1,311.5,324.1,313,329.5,316.3z"/>
		<path class="st0" d="M270.4,325.5c-1.2,0.6-2,1.1-2.9,1.4c-16.2,7.2-32.4,14.4-48.5,21.7c-1.8,0.8-3.2,0.8-5,0
			c-11.4-5.1-22.9-10-34.3-15.1c-9.3-4.1-11.7-20.5-4-27.2c0.6-0.5,2-0.4,2.9-0.1c10.9,3.3,21.8,6.7,32.7,10.1
			c0.4,0.1,0.9,0.2,1.6-0.1c-11.1-5.4-22.1-10.8-33.4-16.3c3.2-4.2,7.5-5.6,12.3-5.4c3.1,0.1,6.4,0.6,9.2,1.8
			c22.6,9.3,45.1,18.8,67.6,28.3C269,324.8,269.5,325.1,270.4,325.5z"/>
		<path class="st0" d="M363.5,376c-6.8,2.6-10.7,7.7-12.6,14.9c-10-3.5-19.8-7-29.7-10.5c-0.1,0.2-0.2,0.4-0.3,0.6
			c3.8,2,7.6,4,11.4,6.1c5,2.6,9.9,5.3,14.9,7.8c1.5,0.7,1.8,1.5,1.6,3.2c-0.3,2.8-0.1,5.7-0.1,9c-8.7-3.5-16.9-6.9-25.2-10.3
			c-0.1,0.2-0.3,0.4-0.4,0.6c2.1,2,4.2,4,6.2,6c-3.9,2.9-4.3,4-2.1,7.6c0.3-0.4,0.6-0.8,0.8-1.1c0.9-1.6,2.3-2.9,4-1.8
			c1.8,1.2,1.6,3.3,0.5,5c-1.8,2.8-5.5,2.3-7.9-0.6c-4-4.8-7.8-9.7-12.1-14.1c-7.2-7.3-15.6-13.2-25.4-17.9c1.6-0.7,2.8-1.2,4-1.8
			c16.1-7.1,32.2-14.3,48.3-21.5c1.8-0.8,3.2-0.8,5,0c7.4,3.3,14.8,6.4,22.2,9.6c8.4,3.6,13.1,11.9,11.3,20.8
			c-1.4,7.4-4.8,13.9-10.4,19.2c-2.2,2-4.7,2.8-7.6,2.4c-3.3-0.5-5.3-2.6-5.6-5.9C353.5,392.9,356.7,383.9,363.5,376z"/>
	</g>
	<path class="st0" d="M325,201.2c28.3-1.1,19.3-27.6,19.3-27.6c16.7-20.8,9.5-42.3-16.5-48.8"/>
	<path class="st0" d="M344.3,173.6c16.7-20.8,9.5-42.3-16.5-48.8c-2.5-0.6-5.1-1.1-8.2-1.7c5.8-12.5,0.1-21.4-8.9-28.9
		C293,79.5,272.9,76,251,83.7c-10.6,3.7-15.4,8.2-24.2,20.9c-25.6-7-40.6,1.6-46.9,27.4c-19.1,2.5-35.3,9.6-36.7,32.2
		c-0.9,14.8,7.4,24.3,20.8,29.6c-3.8,12.4-1,22.5,8,29.3c10.4,7.9,27.1,7.9,39.1-0.2c-13.2-7.4-21.4-17.3-17.4-33.3
		c-16.8-5.9-23.8-17.5-18.2-30.1c-2.9,14.7,7,21.6,23,26c-4.5,12.2-0.7,23.8,11,31.6c4,2.7,5.5,5.2,5.2,10.1
		c-1.1,16.9,9.5,30.4,26.1,34.3c6.7,1.6,13.5,2.9,20.1,5c5.9,2,8,6.5,6.1,12.7c-3.1,10.3-1.6,13.9,8.6,18.5
		c8.2,3.7,15.7,7.9,18.1,17.7c4.2-6.5,3.8-12.3-1.4-16.7c-2.2-1.9-4.9-3.2-7.1-5.1c-5.6-4.6-5.7-8.4-0.4-13.1
		c8.4-7.5,8.1-12.7-1.7-18.4c-5.5-3.2-11.7-5.1-17.5-7.6c-7.7-3.3-10.1-9.9-5.3-16.6c4-5.7,8.5-9.9,17.1-9.2
		c6.5,0.5,13.9-1.3,19.7-4.4c11.4-6.1,12.4-16.8,3.8-26.5c-1.4-1.5-2.8-3-4.4-4.6c4.3-2.3,8.5-4.1,12.1-6.6
		c10.4-7.3,15.4-20.2,12.6-31.5c-2.9-11.7-12.5-19.7-26-21.3c-4.7-0.6-9.6-0.7-14.3-0.6c-4.6,0.2-9.3,1-14.5,1.6
		c13.9-7.6,39.6-5.1,50.4,4.5c15.8,14.1,12.7,38-6.7,51.1c-2.4,1.6-5,2.9-7.5,4.4c-0.1,0.8,14.9,6.2,22.5,6.4
		C353.3,200.1,343.1,175.1,344.3,173.6z M249.5,226.5c5-14.6,7.4-37.1-9.6-44.4c0,0-3.2-2.1-3.2-2.1l2.1-2.7
		c4.9-6.7,9.3-15.9,6.8-24.3c-2.3-7.3-9.5-11.8-17.2-12.2c-5.6-0.3-11.6,1.5-15.6,5.9c3.5-4.8,9.6-7.3,15.6-7.5
		c8.4-0.5,17.5,4.3,20.8,12.5c3.4,8.8,0.8,18.3-3.5,26.5C260.6,189.1,257,211.5,249.5,226.5z"/>
</g>
</svg>
