<?xml version="1.0" encoding="utf-8"?>
<!-- Generator: Adobe Illustrator 25.4.1, SVG Export Plug-In . SVG Version: 6.00 Build 0)  -->
<svg version="1.1" id="Слой_1" xmlns="http://www.w3.org/2000/svg" xmlns:xlink="http://www.w3.org/1999/xlink" x="0px" y="0px"
	 viewBox="0 0 512 512" style="enable-background:new 0 0 512 512;" xml:space="preserve">
<g>
	<g>
		<g>
			<path d="M325.9,299.5c3.5,0,6.9,1.4,10.4,3.5c-6.1,3.8-11.7,7.2-17.3,10.6c0.1,0.2,0.2,0.4,0.3,0.6c6.9-3,13.8-6,20.8-9
				c4.6,5.3,7.2,11.5,7.8,18.4c0.1,0.7-1.2,1.9-2,2.3c-10.2,5.5-20.4,10.9-30.7,16.3c-0.8,0.4-1.5,0.9-2.1,1.7
				c11.5-4.3,23-8.6,34.8-13c-0.8,4.5-3.2,7.4-6.8,9.1c-9.6,4.7-19.2,9.4-29,13.7c-45.2,20.2-90.4,40.2-135.6,60.3
				c-0.7,0.3-1.4,0.6-2.3,0.9c0.2-2.9,0.2-5.6,0.6-8.3c0.1-0.8,1.2-1.6,2.1-2.1c8-4.1,16.1-8.1,24.2-12.1c1-0.5,2.1-1.1,2.9-2
				c-10,3.4-20,6.8-30.3,10.2c-0.7-1.8-1.2-3.4-2-5.4c5.4-2.2,10.6-4.3,15.8-6.4c0-0.1-0.1-0.3-0.1-0.4c-5.1,1.2-10.2,2.3-15.2,3.7
				c-0.6,0.2-1.2,0.3-1.7,0.3c-1.3,0-2.3-0.6-3.2-2c-1.3-1.8-2.8-3.5-4.4-5.1c3,6.4,4.7,13.1,5.1,20.1c0.2,2.6,0.1,5.3-0.4,7.9
				c-0.6,3.3-2.5,5.1-5.4,5.1c-0.6,0-1.3-0.1-2-0.3c-16.8-4.2-23-22.3-17.4-33.9c2.2-4.5,5.9-7.4,10.5-9.5
				c45.2-20.1,90.4-40.2,135.5-60.4c10.4-4.6,20.8-9.3,31.2-13.9C322.2,299.9,324.1,299.5,325.9,299.5 M348,331L348,331
				 M325.9,298.5C325.9,298.5,325.9,298.5,325.9,298.5c-2,0-4,0.4-6,1.3c-6.9,3-13.9,6.1-20.6,9.2c-3.5,1.6-7.1,3.2-10.6,4.7
				l-22.1,9.9c-37.2,16.6-75.6,33.7-113.4,50.5c-5.3,2.3-8.8,5.6-11,9.9c-3,6.1-2.8,13.9,0.4,20.8c3.4,7.4,9.7,12.5,17.7,14.5
				c0.8,0.2,1.5,0.3,2.2,0.3c3.4,0,5.7-2.2,6.3-5.9c0.4-2.4,0.6-5.2,0.4-8.1c-0.3-5.2-1.3-10.3-3-15.1c0.2,0.3,0.4,0.5,0.5,0.8
				c1.1,1.6,2.4,2.4,4,2.4c0.6,0,1.3-0.1,2-0.3c1.7-0.5,3.5-1,5.3-1.4l-2.2,0.9l-4.2,1.7c-0.5,0.2-0.7,0.8-0.6,1.3l0.8,2.2l1.1,3.1
				c0.1,0.4,0.5,0.7,0.9,0.7c0.1,0,0.2,0,0.3-0.1l12.2-4.1l7.8-2.6c-5.8,2.9-11.8,5.9-17.7,8.9c-0.4,0.2-2.4,1.3-2.6,2.8
				c-0.3,2-0.4,3.9-0.5,6c0,0.8-0.1,1.6-0.1,2.4c0,0.3,0.1,0.7,0.4,0.9c0.2,0.1,0.4,0.2,0.6,0.2c0.1,0,0.2,0,0.4-0.1
				c0.3-0.1,0.5-0.2,0.8-0.3c0.5-0.2,1-0.4,1.5-0.6c10.8-4.8,21.6-9.6,32.4-14.4c33.8-15,68.8-30.5,103.2-45.9
				c8.1-3.6,16.2-7.5,24-11.3c1.7-0.8,3.3-1.6,5-2.4c4-1.9,6.4-5.1,7.3-9.7c0-0.1,0-0.2,0-0.3c0-0.6-0.4-1-1-1c0,0,0,0,0,0
				c0,0,0,0-0.1,0c-0.1,0-0.2,0-0.3,0.1l-18.6,7l-5.6,2.1c7.6-4,15.4-8.2,23-12.3c0.7-0.4,2.7-1.8,2.6-3.3c-0.6-7.1-3.3-13.5-8.1-19
				c-0.2-0.2-0.5-0.3-0.8-0.3c-0.1,0-0.3,0-0.4,0.1l-12.5,5.4l2.5-1.6l7-4.3c0.3-0.2,0.5-0.5,0.5-0.9c0-0.3-0.2-0.7-0.5-0.9
				C332.7,299.7,329.3,298.5,325.9,298.5L325.9,298.5z"/>
		</g>
		<g>
			<path d="M198.3,281.3c0.2,0,0.5,0,0.7,0c3.1,0.1,6.3,0.6,9.2,1.8c22.5,9.3,44.9,18.7,67.3,28.2c0.5,0.2,1,0.5,1.9,0.9
				c-1.2,0.6-2,1-2.9,1.4c-16.1,7.2-32.3,14.4-48.4,21.6c-0.9,0.4-1.7,0.6-2.5,0.6c-0.8,0-1.6-0.2-2.5-0.6
				c-11.4-5.1-22.8-10-34.2-15c-9.3-4.1-11.7-20.4-4-27.1c0.3-0.2,0.8-0.3,1.3-0.3c0.5,0,1.1,0.1,1.6,0.2
				c10.9,3.3,21.7,6.7,32.6,10.1c0.2,0.1,0.4,0.1,0.7,0.1c0.3,0,0.5-0.1,0.9-0.3c-11-5.4-22-10.8-33.3-16.3
				C189.8,282.7,193.9,281.3,198.3,281.3 M198.3,280.3L198.3,280.3c-5.3,0-9.4,2-12.3,5.8c-0.2,0.2-0.2,0.5-0.2,0.8
				c0.1,0.3,0.3,0.5,0.5,0.7l18.3,9l6.7,3.3l-0.4-0.1c-8.1-2.5-16.5-5.1-24.8-7.6c-0.6-0.2-1.3-0.3-1.9-0.3c-0.8,0-1.5,0.2-1.9,0.6
				c-3.8,3.3-5.7,9.2-4.7,15.4c0.9,6.2,4.3,11.3,9,13.3c5.6,2.5,11.3,5,16.8,7.4c5.7,2.5,11.6,5.1,17.4,7.6c1,0.5,2,0.7,2.9,0.7
				c0.9,0,1.9-0.2,2.9-0.7c11.6-5.2,23.5-10.5,34.9-15.6c4.5-2,9-4,13.5-6c0.6-0.3,1.2-0.6,1.8-0.9c0.3-0.2,0.7-0.4,1.1-0.6
				c0.3-0.2,0.6-0.5,0.6-0.9c0-0.4-0.2-0.7-0.6-0.9c-0.3-0.2-0.6-0.3-0.8-0.4c-0.4-0.2-0.8-0.4-1.1-0.6c-4.9-2.1-9.8-4.1-14.7-6.2
				c-17.2-7.2-35.1-14.7-52.6-22c-2.6-1.1-5.9-1.7-9.5-1.8C198.8,280.3,198.5,280.3,198.3,280.3L198.3,280.3z"/>
		</g>
		<g>
			<path d="M348.7,343.2c0.8,0,1.6,0.2,2.5,0.6c7.4,3.3,14.8,6.4,22.1,9.6c8.4,3.6,13,11.9,11.3,20.7c-1.4,7.4-4.8,13.9-10.3,19.1
				c-1.8,1.7-3.8,2.5-6.1,2.5c-0.5,0-1,0-1.5-0.1c-3.2-0.5-5.2-2.6-5.6-5.9c-1.1-10.4,2.2-19.3,8.9-27.2
				c-6.7,2.6-10.6,7.7-12.6,14.8c-9.9-3.5-29.8-9.8-29.8-9.8s7.6,4,11.4,6c4.9,2.6,9.9,5.3,14.9,7.8c1.5,0.7,1.8,1.5,1.6,3.2
				c-0.3,2.8-0.1,5.7-0.1,9c-8.7-3.5-16.9-6.9-25.1-10.2c-0.1,0.2-0.3,0.4-0.4,0.6c2.1,2,4.1,4,6.2,6c-3.9,2.9-4.2,4-2.1,7.5
				c0.3-0.4,0.6-0.8,0.8-1.1c0.7-1.2,1.6-2.2,2.7-2.2c0.4,0,0.8,0.1,1.3,0.4c1.8,1.2,1.6,3.3,0.5,5c-0.8,1.2-2,1.8-3.3,1.8
				c-1.6,0-3.3-0.9-4.6-2.5c-3.9-4.8-7.7-9.7-12.1-14.1c-7.2-7.3-15.6-13.1-25.3-17.8c1.6-0.7,2.7-1.2,3.9-1.8
				c16.1-7.1,32.1-14.2,48.1-21.4C347.1,343.4,347.9,343.2,348.7,343.2 M348.7,342.2c-0.9,0-1.9,0.2-2.9,0.7
				c-12.3,5.5-24.8,11.1-36.9,16.4c-3.7,1.7-7.5,3.3-11.2,5c-0.8,0.4-1.6,0.7-2.5,1.1l-1.5,0.7c-0.4,0.2-0.6,0.5-0.6,0.9
				c0,0.4,0.2,0.7,0.6,0.9c9.8,4.7,18,10.5,25,17.6c3.4,3.5,6.5,7.3,9.6,11c0.8,1,1.6,2,2.4,3c1.5,1.8,3.5,2.8,5.4,2.8
				c1.7,0,3.2-0.8,4.1-2.3c1.6-2.5,1.3-5-0.8-6.4c-0.6-0.4-1.2-0.6-1.8-0.6c-1.3,0-2.5,0.8-3.4,2.4c-0.9-2-0.2-2.7,2.6-4.8
				c0.2-0.2,0.4-0.4,0.4-0.7s-0.1-0.6-0.3-0.8l-3.8-3.6l4.9,2l17.1,7c0.1,0,0.3,0.1,0.4,0.1c0.2,0,0.4-0.1,0.6-0.2
				c0.3-0.2,0.4-0.5,0.4-0.8c0-1,0-2,0-2.9c0-2.1-0.1-4,0.1-5.9c0.2-2.1-0.4-3.3-2.2-4.2c-3.8-1.9-7.7-4-11.4-5.9
				c-1.1-0.6-2.3-1.2-3.4-1.8c-0.4-0.2-0.9-0.5-1.4-0.8c6.3,2,14,4.6,19.1,6.4c0.1,0,0.2,0.1,0.3,0.1c0.2,0,0.3,0,0.5-0.1
				c0.2-0.1,0.4-0.4,0.5-0.6c1.5-5.5,4.1-9.5,8-12.1c-5.2,7.5-7.3,15.5-6.4,24.4c0.4,3.8,2.7,6.2,6.4,6.8c0.5,0.1,1.1,0.1,1.6,0.1
				c2.5,0,4.8-0.9,6.8-2.8c5.6-5.2,9.1-11.8,10.6-19.7c1.8-9.2-3-18-11.9-21.8c-1.7-0.7-3.4-1.5-5.1-2.2c-5.6-2.4-11.4-4.9-17-7.4
				C350.6,342.4,349.7,342.2,348.7,342.2L348.7,342.2z"/>
		</g>
	</g>
	<g>
		<path d="M279.9,67.3c13.5,0,26.1,4.8,37.8,14.5c9,7.4,14.6,16.3,8.8,28.8c3,0.6,5.6,1,8.1,1.7c25.9,6.5,33.1,27.9,16.4,48.6
			c-1.2,1.5,9,26.4-19.3,27.5c-7.6-0.2-22.4-6.4-22.4-6.4c2.5-1.5,5-2.8,7.4-4.4c19.3-13,22.4-36.8,6.7-50.9
			c-6.4-5.7-18.2-8.9-29.6-8.9c-7.6,0-15.1,1.4-20.6,4.5c5.2-0.6,9.8-1.4,14.5-1.6c1.2,0,2.4-0.1,3.5-0.1c3.6,0,7.2,0.2,10.7,0.6
			c13.4,1.6,23,9.6,25.9,21.2c2.7,11.2-2.2,24.1-12.6,31.4c-3.6,2.5-7.8,4.3-12.1,6.6c1.6,1.6,3,3.1,4.4,4.6
			c8.6,9.6,7.6,20.3-3.8,26.4c-5.1,2.7-11.6,4.5-17.5,4.5c-0.7,0-1.4,0-2.2-0.1c-0.6,0-1.2-0.1-1.7-0.1c-7.4,0-11.6,4-15.3,9.3
			c-4.7,6.7-2.4,13.3,5.3,16.6c5.8,2.5,12,4.4,17.5,7.6c9.8,5.7,10.1,10.9,1.7,18.3c-5.3,4.7-5.2,8.4,0.4,13
			c2.2,1.8,4.9,3.2,7.1,5.1c5.1,4.4,5.6,10.2,1.4,16.7c-2.4-9.8-9.9-13.9-18.1-17.7c-10.1-4.6-11.7-8.2-8.6-18.5
			c1.9-6.2-0.2-10.7-6.1-12.7c-6.5-2.1-13.3-3.4-20-5c-16.5-3.9-27-17.3-26-34.1c0.3-4.9-1.1-7.4-5.2-10.1
			c-11.6-7.7-15.4-19.3-11-31.5c-16-4.4-25.8-11.3-22.9-25.9c-5.6,12.5,1.4,24.1,18.1,30c-3.9,16,4.2,25.9,17.3,33.2
			c-6,4-13.2,6-20.2,6c-6.9,0-13.6-2-18.8-5.9c-9-6.8-11.8-16.9-8-29.2c-13.4-5.2-21.7-14.8-20.7-29.5c1.4-22.5,17.6-29.5,36.6-32
			c4.9-20,15.1-29.6,31.4-29.6c4.6,0,9.8,0.8,15.4,2.3c8.8-12.6,13.6-17.1,24.1-20.8C265.6,68.6,272.9,67.3,279.9,67.3 M220,133.9
			c3.7-4.1,9.1-5.9,14.3-5.9c0.4,0,0.8,0,1.3,0c7.7,0.4,14.9,4.9,17.1,12.2c2.4,8.4-1.9,17.5-6.8,24.2l-2.1,2.7c0,0,3.7,1.2,3.7,1.2
			c17,7.3,14.1,30.6,9.1,45.1c7.5-14.9,11.2-37.2-3.8-48.2c4.3-8.1,6.9-17.6,3.5-26.4c-3.1-7.8-11.5-12.5-19.5-12.5
			c-0.4,0-0.8,0-1.2,0C229.5,126.7,223.5,129.2,220,133.9 M279.9,66.3c-7.1,0-14.6,1.4-22.1,4c-10.2,3.6-15.3,7.9-24.2,20.6
			c-5.5-1.4-10.5-2.2-15-2.2c-16.6,0-27.1,9.7-32.2,29.7c-10.9,1.5-18.8,4.3-24.7,8.6c-7.5,5.5-11.4,13.5-12.1,24.3
			c-0.9,13.8,6.2,24.3,20.5,30.2c-3.5,12.3-0.6,22.5,8.6,29.4c5.1,3.9,12,6.1,19.4,6.1c7.4,0,14.8-2.2,20.8-6.2
			c0.3-0.2,0.5-0.5,0.4-0.9c0-0.3-0.2-0.7-0.5-0.8c-14.9-8.3-20.2-18.5-16.9-32.1c0.1-0.5-0.2-1-0.6-1.2c-9.2-3.2-15.4-8.1-18-14.2
			c-0.7-1.6-1.1-3.3-1.3-4.9c2.7,9.6,12.8,14,22.5,16.7c-4.1,12.5,0.1,23.9,11.7,31.6c3.8,2.6,5,4.8,4.7,9.2
			c-1.1,17,9.7,31.1,26.7,35.2c1.7,0.4,3.5,0.8,5.2,1.2c4.9,1.1,9.9,2.2,14.7,3.8c5.3,1.7,7.2,5.7,5.5,11.4
			c-3.3,10.8-1.4,14.9,9.1,19.7c8.2,3.8,15.2,7.7,17.5,17c0.1,0.4,0.4,0.7,0.8,0.7c0.1,0,0.1,0,0.2,0c0.3,0,0.6-0.2,0.8-0.5
			c4.5-6.9,3.9-13.2-1.6-18c-1.2-1-2.5-1.9-3.8-2.7c-1.2-0.8-2.3-1.5-3.3-2.3c-2.6-2.1-3.9-4-3.9-5.7c0-1.7,1.1-3.6,3.6-5.7
			c4.6-4.1,6.6-7.5,6.3-10.8c-0.3-3.2-2.9-6.1-8.1-9.2c-3.8-2.2-8-3.8-12-5.4c-1.8-0.7-3.7-1.5-5.6-2.2c-3.6-1.5-6.1-3.9-6.8-6.7
			c-0.7-2.6-0.1-5.5,2-8.4c3.8-5.3,7.7-8.8,14.5-8.8c0.5,0,1.1,0,1.6,0.1c0.7,0.1,1.5,0.1,2.2,0.1c5.9,0,12.5-1.7,18-4.6
			c5.6-3,9-7.1,9.8-12c0.9-5.1-1.2-10.8-5.8-15.9c-0.9-1-1.9-2-2.9-3.1c-0.2-0.2-0.4-0.4-0.6-0.6c1-0.5,1.9-1,2.9-1.5
			c2.9-1.5,5.6-2.8,8.1-4.6c10.5-7.4,15.8-20.7,12.9-32.4c-3-12.1-13-20.3-26.7-21.9c-3.5-0.4-7.2-0.6-10.9-0.6
			c-1.2,0-2.4,0-3.6,0.1c-2.1,0.1-4.1,0.3-6.2,0.5c3.7-0.9,7.9-1.4,12.4-1.4c11.7,0,23.1,3.4,29,8.7c6.8,6.1,10.3,14.4,9.7,23.2
			c-0.7,10.1-6.6,19.7-16.3,26.1c-1.6,1.1-3.3,2-5,3c-0.8,0.5-1.6,0.9-2.4,1.4c-0.3,0.2-0.5,0.6-0.5,0.9c0,0.4,0.3,0.7,0.6,0.9
			c0.6,0.3,15.1,6.3,22.8,6.4c0,0,0,0,0,0c0,0,0,0,0,0c8-0.3,13.9-2.6,17.3-6.7c5-6.1,3.8-14.5,3.1-19c-0.1-0.9-0.3-1.9-0.3-2.3
			c8.2-10.3,11-21.1,7.8-30.5c-3.2-9.4-12-16.4-24.9-19.6c-1.7-0.4-3.5-0.8-5.3-1.1c-0.5-0.1-1.1-0.2-1.6-0.3
			c5.7-13.9-2.7-23.1-9.6-28.8C306.6,71.3,293.6,66.3,279.9,66.3L279.9,66.3z M245.4,166.6l1.2-1.6c3.8-5.2,9.8-15.4,7-25.1
			c-1.9-6.2-7.4-10.8-14.1-12.4c7.1,1,13.4,5.5,15.8,11.7c2.8,7.3,1.7,15.9-3.5,25.5c-0.2,0.4-0.1,1,0.3,1.3
			c9.4,6.9,11.4,18.8,9.1,30.8c0.3-2.8,0.3-5.8,0-8.8c-0.9-10.2-5.5-17.3-13.4-20.7c0,0-0.1,0-0.1,0
			C247.7,167.4,246.5,167,245.4,166.6L245.4,166.6z"/>
	</g>
</g>
</svg>
