<?xml version="1.0" encoding="utf-8"?>
<!-- Generator: Adobe Illustrator 26.5.0, SVG Export Plug-In . SVG Version: 6.00 Build 0)  -->
<svg version="1.1" id="Layer_1" xmlns="http://www.w3.org/2000/svg" xmlns:xlink="http://www.w3.org/1999/xlink" x="0px" y="0px"
	 viewBox="0 0 100 100" style="enable-background:new 0 0 100 100;" xml:space="preserve">
<style type="text/css">
	.st0{fill:#657687;}
</style>
<g>
	<path class="st0" d="M40.6,67.1C40.6,67.1,40.7,67.1,40.6,67.1L40.6,67.1z"/>
	<path class="st0" d="M75.8,49.5c-2.2-0.5-4,0.4-5.7,1.7c0,3.4,0,6.8,0,10.2c0,1,0,2-0.3,3c-0.1,0.3,3.1-0.6,5.1-3.3
		c0.2-0.3,0.4-0.5,0.5-0.8c0.8-1.4,1.3-2.9,1.8-4.5c0.2-1.5,0.5-2.9,0.3-4.4C77.4,50.4,76.9,49.7,75.8,49.5z"/>
	<path class="st0" d="M31.1,60.2c0-3.4,0-6.8,0-10.2c0.1-5.7,3.5-11.1,9.2-13.3c3.2-1.2,6.5-1.8,9.7-1.8c3.3-0.1,6.5,0.5,9.7,1.8
		c5.6,2.2,9.1,7.6,9.2,13.3c0,3.4,0,6.8,0,10.2c0,1,0,2-0.3,3c-0.1,0.3-0.3,1.1-0.5,1.5c-1.7,4.8-3.8,9.4-6.7,13.6
		c-1.5,1.9-3,3.7-5,5.1c-2.1,1.5-4.3,2.3-6.5,2.2c-2.2,0.1-4.4-0.7-6.5-2.2c-1.9-1.4-3.5-3.3-5-5.1c-2.8-4.2-5-8.8-6.7-13.6
		c-0.1-0.3-0.4-1.2-0.5-1.5C31.1,62.3,31.1,61.3,31.1,60.2z"/>
	<path class="st0" d="M32.7,91.1c0.2,0.2,0.3,0.5,0.5,0.7c3.9,5,10,8.2,16.8,8.2h0h0c6.8,0,12.9-3.2,16.8-8.2
		c0.2-0.2,0.4-0.5,0.5-0.7c-4.4-0.7-5.5-3.4-5.5-4.3v0v-2c0-1.8-0.1-3.6-0.1-5.4c-0.7,0.9-1.4,1.8-2.2,2.6c-0.9,0.9-1.8,1.9-2.9,2.6
		c-2.1,1.6-4.4,2.3-6.6,2.3c-2.2,0.1-4.5-0.7-6.6-2.3c-1-0.8-2-1.7-2.9-2.6c-0.8-0.8-1.5-1.7-2.2-2.6v1.2c0,2.1-0.1,4.1-0.1,6.2v0
		C38.2,87.7,37,90.5,32.7,91.1z"/>
	<path class="st0" d="M24.2,49.5c2.2-0.5,4,0.4,5.7,1.7c0,3.4,0,6.8,0,10.2c0,1,0,2,0.3,3c0.1,0.3-3.1-0.6-5.1-3.3
		c-0.2-0.3-0.4-0.5-0.5-0.8c-0.8-1.4-1.3-2.9-1.8-4.5c-0.2-1.5-0.5-2.9-0.3-4.4C22.6,50.4,23.1,49.7,24.2,49.5z"/>
	<path class="st0" d="M50,9.6L50,9.6L50,9.6c4.5,0,8.1,3.6,8.1,8c0,0.3,0,0.3-0.1,0.6c-2.2-0.7-4.4-0.8-6.6-0.9c-0.2,0-0.4,0-0.7,0
		c-0.1,0-0.2,0-0.4,0c-0.1,0-0.2,0-0.3,0l0,0h0c0,0,0,0-0.1,0c0,0,0,0-0.1,0h0l0,0c-0.1,0-0.2,0-0.3,0c-0.1,0-0.2,0-0.4,0
		c-0.3,0-0.5,0-0.7,0c-2.2,0.1-4.4,0.2-6.6,0.9c0-0.3-0.1-0.3-0.1-0.6C41.9,13.2,45.5,9.6,50,9.6z"/>
	<g>
		<path class="st0" d="M55,34.5c-1.4-0.3-2.9-0.4-4.3-0.4V18.3c0.1,0,0.2,0,0.3,0c0.2,0,0.4,0,0.6,0c2.1,0.1,4.2,0.3,6.2,0.8
			L55,34.5z"/>
		<path class="st0" d="M31.8,42.9l-6.6-5.8c0.1-0.7,0.1-1.3,0.2-1.8c0.3-1.5,0.7-2.9,1.3-4.1l7.3,8.6C33.2,40.8,32.4,41.8,31.8,42.9
			z"/>
		<path class="st0" d="M49.4,34.1c-1.4,0-2.9,0.2-4.3,0.4l-2.9-15.4c2-0.5,4.1-0.7,6.2-0.8c0.2,0,0.4,0,0.6,0c0.1,0,0.2,0,0.3,0
			V34.1z"/>
		<path class="st0" d="M38,36.8c-1.1,0.6-2.1,1.3-3,2.1l-7.6-9c1.2-2.4,2.8-4.3,4.7-5.9L38,36.8z"/>
		<path class="st0" d="M65,38.9c-0.9-0.8-1.9-1.5-3-2.1L67.9,24c1.9,1.6,3.5,3.6,4.7,5.9L65,38.9z"/>
		<path class="st0" d="M25.2,38.8c0.1,1.6,0.5,5.9,2.2,9.7c0.8,0.3,1.7,0.8,2.6,1.5c0-2,0.5-4.1,1.3-5.9L25.2,38.8z"/>
		<path class="st0" d="M33.1,23.2c2.3-1.7,4.9-2.9,7.7-3.7l2.9,15.3c-1.3,0.3-2.7,0.7-4,1.2c-0.2,0.1-0.4,0.2-0.6,0.2L33.1,23.2z"/>
		<path class="st0" d="M59.2,19.5c2.8,0.8,5.4,2,7.7,3.7l-6,13c-0.2-0.1-0.4-0.2-0.6-0.2c-1.3-0.5-2.6-0.9-4-1.2L59.2,19.5z"/>
		<path class="st0" d="M68.2,42.9c-0.6-1.1-1.4-2.2-2.2-3.1l7.3-8.6c0.5,1.3,1,2.7,1.3,4.1c0.1,0.5,0.2,1.1,0.2,1.8L68.2,42.9z"/>
		<path class="st0" d="M68.8,44.1C69.6,46,70,48,70,50.1c0.9-0.8,1.8-1.3,2.6-1.5c1.7-3.8,2.1-8.2,2.2-9.7L68.8,44.1z"/>
	</g>
	<path class="st0" d="M70.8,64.8c0.4,0,0.7,0.5,0.9,0.8c0.2,0.4,0.3,0.8,0.4,1.2c0.2,0.8,0.4,1.6,0.5,2.4c0.1,0.8,0.2,1.7,0.2,2.5
		c0,0.9-0.1,1.7-0.5,2.6c-0.1,0.2-0.2,0.5-0.4,0.7c-0.2,0.2-0.4,0.5-0.9,0.7s-1.1-0.1-1.3-0.4c-0.3-0.2-0.4-0.5-0.5-0.7
		c-0.5-0.9-0.6-1.8-0.6-2.6c-0.1-1.7,0.2-3.4,0.9-4.9c-0.3,1.6-0.2,3.2,0,4.8c0.1,0.8,0.3,1.6,0.7,2.2c0.2,0.3,0.5,0.5,0.5,0.4
		c0.1,0,0.3-0.3,0.5-0.6c0.3-0.7,0.4-1.4,0.5-2.2c0.1-0.8,0.1-1.6,0.1-2.4c0-0.8-0.1-1.6-0.1-2.4c-0.1-0.4-0.1-0.8-0.2-1.2
		C71.3,65.4,71.2,64.9,70.8,64.8z"/>
	<path class="st0" d="M29.2,64.8c-0.4,0.1-0.5,0.5-0.7,0.9c-0.1,0.4-0.2,0.8-0.2,1.2c-0.1,0.8-0.1,1.6-0.1,2.4
		c0.1,1.6,0.4,3.2,0.9,4.4c0.1,0.2,0.2,0.3,0.2,0.4c0.1,0.1,0.1,0.1,0,0c-0.1-0.1-0.2,0.1-0.2,0c0.1,0,0.1-0.1,0.2-0.3
		c0.3-0.5,0.5-1.3,0.7-2c0.3-1.5,0.4-3.1,0.4-4.7c0.5,1.5,0.7,3.2,0.6,4.9c-0.1,0.8-0.2,1.7-0.6,2.5c-0.1,0.2-0.2,0.4-0.4,0.6
		c-0.2,0.2-0.6,0.4-0.9,0.3c-0.7-0.2-0.9-0.7-1.1-1.1c-0.4-0.8-0.6-1.7-0.6-2.5s-0.1-1.7,0-2.5s0.2-1.6,0.5-2.5
		c0.1-0.4,0.3-0.8,0.5-1.2C28.4,65.3,28.7,64.8,29.2,64.8z"/>
</g>
</svg>
