<?xml version="1.0" encoding="utf-8"?>
<!-- Generator: Adobe Illustrator 26.5.0, SVG Export Plug-In . SVG Version: 6.00 Build 0)  -->
<svg version="1.1" id="Layer_1" xmlns="http://www.w3.org/2000/svg" xmlns:xlink="http://www.w3.org/1999/xlink" x="0px" y="0px"
	 viewBox="0 0 15 15" style="enable-background:new 0 0 15 15;" xml:space="preserve">
<style type="text/css">
	.st0{fill:#0077FF;}
</style>
<g>
	<path class="st0" d="M1.5,7.5c0-2.1,1.2-4.1,3-5.2c1.4-0.8,3-1,4.6-0.6c1.4,0.4,2.6,1.2,3.4,2.4h-2v1.5h3.9V1.7h-1.5v0.7
		C11.5,0.8,9.6,0,7.5,0h0c-2,0-3.9,0.8-5.3,2.2C0.8,3.6,0,5.5,0,7.5v0.2h1.5V7.5z"/>
	<path class="st0" d="M13.5,7.3v0.2c0,3.3-2.7,6-6,6c0,0,0,0,0,0c-2,0-3.9-1-5-2.6h2V9.4H0.6v3.9h1.5v-0.7C3.5,14.2,5.5,15,7.5,15
		c1.6,0,3.3-0.5,4.7-1.6C14,11.9,15,9.8,15,7.5V7.3H13.5z"/>
</g>
</svg>
